<svg xmlns="http://www.w3.org/2000/svg" viewBox="0 0 141.5 112.67"><title>CompWith_MORKBORG_vert</title><g id="Layer_2" data-name="Layer 2"><g id="Layer_1-2" data-name="Layer 1"><path d="M371.92,333.14c0,.21.06.31.2.3l.15-.07a.66.66,0,0,0-.06-.22s.1-.12.3-.21c.12.31.31.47.56.46.12-.26.27-.4.46-.42-.06-.16-.25-.31-.57-.46a1.33,1.33,0,0,1-.29.06l-.79-.39a1.06,1.06,0,0,0-.44.2,1.25,1.25,0,0,1-.65-.32h-.14c.07.15.14.23.21.23.18.63.53.91,1.06.85m-.48,2.6a.19.19,0,0,0-.15.21h.14Zm-17.68,42.61a.13.13,0,0,0-.15.14,1.27,1.27,0,0,0,.05.51l.29,0,0-.37Zm-.75-6.59c-.11,0-.17.11-.15.21h.07l.15-.07Zm-.55,6.25-.22.13c0,.1.13.2.35.31h.07v-.22c-.07-.14-.14-.22-.21-.22m-2.73,2.51v.14l.06.15c.15-.07.23-.14.23-.21l-.13-.22c-.09,0-.14,0-.16.14m-16.36-4.47v.22a.56.56,0,0,1,.21.08l.15-.07c0-.07-.09-.15-.28-.23Zm-19.46-9.73.12.05q.11,0,.27-.51a.58.58,0,0,1-.06-.26c-.08,0-.2.24-.33.72m.18-1.26,0-.14a1.5,1.5,0,0,0-.46,1.18c.1,0,.26-.34.5-1m-.23,1.7v.07l0,.14a.19.19,0,0,0,.12-.2l-.06-.13c-.06,0-.09,0-.1.12m-.29.86v.21h.12l.1-.07,0-.14v-.13l.12-.19v-.14h-.11a1.19,1.19,0,0,1-.17.46m-28.05,9.91c-.42.09-.63.18-.63.26v0l.28,0c.26,0,.37-.12.34-.29M283,378v.05l.29,0a1.91,1.91,0,0,1,1.05-.55v-.1h-.07a3.64,3.64,0,0,1-.93.17q0,.26-.33.45m-.74-.38c.62,0,.93-.12.92-.22v-.06a2.49,2.49,0,0,1-1.39-.23h-.14a.84.84,0,0,1-.21.12v.05c.54.11.81.22.82.33m-3.13.78-.06.12v0h.15c0,.17,1.18.41,1.39.45a2.05,2.05,0,0,0,.65-.1v-.1a6.31,6.31,0,0,1-2.12-.41m-15.83-3.16v.08l.32-.07c.18-.25.31-.38.41-.37v-.32l-.47,0a2.4,2.4,0,0,0-.27.7M259,377v-.12c-.34.1-.56.17,0,.12m1.15-1.29a.68.68,0,0,0,.32-.06c.21,0,.19.4,0,.39l.07.16c.58-.32.89-.57.12-.86-.34,0-.5.14-.49.37m-1.05.67s.05.08.15.08l-.25.38v0c.44-.13,1.06-.32.49-.41l.66-.76c-.37,0-.56.14-.56.29-.75-.15-1.13,0-1.12.43a.54.54,0,0,1,.31.09Zm-22.79,5.5a.58.58,0,0,1-.32.06,1,1,0,0,0,.13.56c.11,0,.19-.15.26-.46Zm2.87-16.08-.5.45.15.32-.09.31a.5.5,0,0,0,.14.32,2.76,2.76,0,0,1-.2,1v.15a.53.53,0,0,0,.33-.53l-.07-.16c.52,0,.49-1.55.24-1.88m21.43-85.32a3.14,3.14,0,0,1-.35.55l0,2.44a1.16,1.16,0,0,1-1.06.7,2.2,2.2,0,0,1-1.35-.5,1.77,1.77,0,0,1-.67-1.14c0-.21.33-.49,1-.83a1.19,1.19,0,0,0,.69-1.17q0-.08,0-.36c0-.2,0-.31,0-.34a1,1,0,0,1,.09-.48,2.58,2.58,0,0,0,.32-1.18l0-1.23c.05-.11.18-.16.39-.17a.7.7,0,0,1,.5.15,1.19,1.19,0,0,1,.3.86v1a1,1,0,0,0,.08.2.74.74,0,0,1,.08.22Zm-4.12-.59c0,.58-.08.9-.17,1a.44.44,0,0,1-.36.19l-.88-.91a1.83,1.83,0,0,1-.57-1.09.64.64,0,0,1,.18-.47v-.32a.44.44,0,0,1,.26-.37c.15-.05.41,0,.76.28a2.18,2.18,0,0,1,.72.69,2.58,2.58,0,0,1,.07,1m10-4.13a4.06,4.06,0,0,0,0-1.65,1.76,1.76,0,0,0-1-.85l-1.29-.6-1.65,0a6.79,6.79,0,0,0-1.35.73,6.59,6.59,0,0,1-.86.27,17.76,17.76,0,0,1-2.67,1.7,1.14,1.14,0,0,1-.37.09,9.08,9.08,0,0,1-1.16.65,2.58,2.58,0,0,0-.89.54l-.22.39c-.12.23-.25.35-.39.35l-.34-.1a1.6,1.6,0,0,0-.5-.09,4.63,4.63,0,0,0-.87.14l-1,.25a2,2,0,0,0-.62.33,1.71,1.71,0,0,0-.49.48,1.74,1.74,0,0,1-.44.77.76.76,0,0,0-.22.37.85.85,0,0,0,.11.6,5,5,0,0,1,.22.49c.05.79.06,1.27.05,1.44a1.51,1.51,0,0,0,.32.36l.14.42.75.77.37.6a1.89,1.89,0,0,0,.48.54l.69.3a5.15,5.15,0,0,1,.53.49,1.7,1.7,0,0,0,.5,0,.83.83,0,0,1,.47,0,5.83,5.83,0,0,1,.54.49,5.34,5.34,0,0,0,.58.25l.33.32.28.26.21.16a.73.73,0,0,0,.25.1h.28a5.36,5.36,0,0,1,.68,0,3.32,3.32,0,0,1,.48.26,8,8,0,0,1,.79.43,4.74,4.74,0,0,0,.82.25,2.09,2.09,0,0,0,1.16.37,4,4,0,0,0,1.74-.66c.24-.13.58-.29,1-.49a13.84,13.84,0,0,0,1.65-1.65,9,9,0,0,0,.41-.82.33.33,0,0,0-.06-.42.3.3,0,0,0-.22-.1.87.87,0,0,0-.36.16,1.72,1.72,0,0,1-.28.16l-.28.05a1.59,1.59,0,0,0-.4.12.92.92,0,0,0-.29.27l-1.75,0s-.19-.09-.5-.23a1.28,1.28,0,0,1-.56-.33,2.16,2.16,0,0,1,.28-2,1,1,0,0,0-.07-.73l-.16-.24c-.09-.12-.12-.19-.11-.2a1.43,1.43,0,0,0,.31-.8V280a1,1,0,0,1,.07-.52,1,1,0,0,1,.18-.22c.12-.12.18-.2.17-.24a2.44,2.44,0,0,1,0-.73,1.34,1.34,0,0,1-.38-.86.69.69,0,0,1,.54-.72,6.54,6.54,0,0,1,1.78-.08,2.2,2.2,0,0,1,.53.39.8.8,0,0,0,.21,0,1,1,0,0,0,.65-.32l.49-.48a.87.87,0,0,1,.39-.09.68.68,0,0,0,.31-.45m3.83,7.32a.24.24,0,0,1-.23.19l-.14,0-.16-.08-.08-.06a2,2,0,0,1-1.15-.63,10,10,0,0,1-.11-1.26.71.71,0,0,1,0-.44,1.17,1.17,0,0,1,.14-.25.63.63,0,0,0,.12-.32,2.31,2.31,0,0,0-.26-.43,1.92,1.92,0,0,1,0-1c.07-.11.36-.14.88-.08a.94.94,0,0,0,.25,0,1.31,1.31,0,0,1,.64,1.11c0,.06,0,.22,0,.49s0,.45,0,.53,0,.29.05.48l0,1.48a.74.74,0,0,1,0,.33m2.4.58a1.23,1.23,0,0,0,0-.73,2.62,2.62,0,0,0-.24-.37,3.23,3.23,0,0,1,0-.48l0-1.33v-.31a.6.6,0,0,1,.14-.35.46.46,0,0,0,.12-.21l0-2.08a.57.57,0,0,0-.47-.56h-.44a1.54,1.54,0,0,1-.29-.27l-.14,0-.12,0a.15.15,0,0,0-.08,0l-.42-.33-.75-.24a3.05,3.05,0,0,0-.82-.15,1.93,1.93,0,0,0-.51.09,1.76,1.76,0,0,0-.41.32l-.34.09-.21.19-.15.15-.05,0a.9.9,0,0,1-.29,0l-.7.3-.14.15a3,3,0,0,0,.05.79s0,.07.08.11l.14.14.06.06a.81.81,0,0,1-.12.27,1.68,1.68,0,0,0-.12.23,4.2,4.2,0,0,1,0,1s0,.08,0,.16a.8.8,0,0,0,0,.15s0,.2.09.52a2.81,2.81,0,0,1,.07.58,1,1,0,0,1-.38.92.89.89,0,0,0,0,.19,1.42,1.42,0,0,0,.24.64c0,.08.06.19.11.33a4.14,4.14,0,0,0,1.05.9,9.46,9.46,0,0,0,1.62.76,3.57,3.57,0,0,0,1.33,0,4.78,4.78,0,0,0,2.26-1.52m12.72-1.94a1.75,1.75,0,0,0-.16-.2l-.12-.11,0,0-.1-1.54-.19-.9-.05-.1a1.13,1.13,0,0,1-.12-.21.28.28,0,0,1,0-.16,5.72,5.72,0,0,1,.5-.59l0-.4-.09-1.26c0-.1-.13-.2-.41-.29l-.35-.51a1,1,0,0,0-1-.41,1,1,0,0,0-.59.46c-.11.12-.29.33-.54.64a.85.85,0,0,1-.29.08c-.4.43-.64.64-.73.62a.78.78,0,0,1-.46-.39,3,3,0,0,1-.18-.4,4.29,4.29,0,0,0-.42-.39c-.11-.42-.49-.61-1.12-.57a1.1,1.1,0,0,0-.27,0,1.76,1.76,0,0,0-1.12,1,2.15,2.15,0,0,0-.12.36.61.61,0,0,1-.79.39c-.14,0-.23-.19-.28-.46l-.47-.41-.12-.26a5.18,5.18,0,0,0-.63-.35c-.32-.09-.55-.08-.68.05-.6.51-.9.93-.87,1.24a.5.5,0,0,0,.08.27l.12.18.18.24a1.3,1.3,0,0,1-.11.33,1.5,1.5,0,0,0-.12.27,2.46,2.46,0,0,0,0,1,2.22,2.22,0,0,0,.41.49,1.63,1.63,0,0,1-.09.59,1.27,1.27,0,0,0,.13.2.53.53,0,0,1,.13.27.83.83,0,0,1-.11.36,2.43,2.43,0,0,0-.11.28l.15,1.26a1.11,1.11,0,0,1-.23.35,1.83,1.83,0,0,0,.12,1.13.84.84,0,0,0,.45.39l.45.18c.3.16.51.22.62.18a4.37,4.37,0,0,0,.45-.36l.14-.06a.74.74,0,0,0,.13-.08.19.19,0,0,1,.09,0l.27-.29c.52-.19.78-.38.8-.58a5.26,5.26,0,0,0-.51-.69,1.15,1.15,0,0,0-.4-.1,2.45,2.45,0,0,1-.4-.68.17.17,0,0,1,0-.19,2.25,2.25,0,0,1,.11-.22l.08-.13s0,0,0,0a4.54,4.54,0,0,1,0-.81,7,7,0,0,0,0-.77,2.7,2.7,0,0,0-.08-.47l.08-.13.14-.07a.4.4,0,0,0,.13-.07l.09,0,.31-.35q.12-.09.54-.33a.19.19,0,0,1,.21,0,1.94,1.94,0,0,1,.53.51,2.19,2.19,0,0,1,.15.57,2,2,0,0,1-.11.55,1.71,1.71,0,0,0-.11.55l.21,3a.58.58,0,0,0,0,.15,1,1,0,0,0,.34.6c.22.22.39.32.52.32a2.1,2.1,0,0,0,2.15-1.07.24.24,0,0,0,0-.13,1,1,0,0,0-.14-.29.79.79,0,0,1-.13-.25,3.69,3.69,0,0,1-.05-.37l-.25-.28a10,10,0,0,1-.22-1.38,2.17,2.17,0,0,1,.13-.82.51.51,0,0,1,.09-.14.76.76,0,0,1,.1-.15,5.14,5.14,0,0,0-.07-.64,2.47,2.47,0,0,1,.24-.43.64.64,0,0,1,.58-.44.72.72,0,0,1,.76.49.81.81,0,0,1-.06.63c-.1.19-.13.29-.1.32a2.43,2.43,0,0,1,.3.77l0,.65a1.27,1.27,0,0,1-.21.32,4.73,4.73,0,0,0,.07.69,1.64,1.64,0,0,1-.19.28.85.85,0,0,0-.05.4,1.94,1.94,0,0,0,.6,1.19l.38.1a1.23,1.23,0,0,1,.28.35.34.34,0,0,0,.36.18l.34-.27.42-.2a1.93,1.93,0,0,0,.37-.4,4.41,4.41,0,0,0,.65-.9,2.24,2.24,0,0,0-.13-.48,1.66,1.66,0,0,0-.17-.33m-4.71,8.8c-1,0-1.3.2-.89.55H280l.82-.47v-.07Zm2-2.39.87,0,.21.16H284a.56.56,0,0,1,.08-.21c-.14-.53-1.2-.27-1.45-.21a.2.2,0,0,0,.14.23m.14.15-.15.21c0,.34.22.52.77.54,0-.34-.17-.59-.62-.75m1.2-.83.44-.05.14.08c0-.05,0-.07.08-.07-.34-.74-1.33-.24-.66,0m1.32,1.59a.24.24,0,0,0-.28-.23c0,.1,0,.17.13.22Zm5.69-9.36a2.84,2.84,0,0,1-.2.68l0,.59c0,.07-.2.12-.51.14l-.61,0a1.52,1.52,0,0,1-.67-.16.33.33,0,0,1-.15-.32,4.79,4.79,0,0,0,0-.86l-.07-.77a1.34,1.34,0,0,0,0-.56.54.54,0,0,0,0-.19v-.19a1.09,1.09,0,0,1,.67-1.13.83.83,0,0,1,.26-.08.71.71,0,0,1,.5.22,2.31,2.31,0,0,0,.44.34.29.29,0,0,1,.2.26,1.73,1.73,0,0,1-.13.47,1.52,1.52,0,0,0-.13.51.31.31,0,0,0,.07.16,3,3,0,0,0,.3.33Zm2,.86c-.15-.24-.22-.4-.2-.49a2.38,2.38,0,0,1,.12-.71,2.36,2.36,0,0,0,.12-.58l-.08-1.16a3.12,3.12,0,0,0,.16-1.57c-.06-.94-.68-1.4-1.86-1.37l-.31-.15a1.06,1.06,0,0,0-.44-.11.33.33,0,0,0-.24.1,2.72,2.72,0,0,0-.73.88c-.21.38-.39.57-.53.58a.74.74,0,0,1-.49-.24l-.11,0-.23-.13c-.08,0-.13-.09-.14-.14a1.28,1.28,0,0,0-1.23-.81,1.21,1.21,0,0,0-.74.41,1.35,1.35,0,0,1-.28.15.28.28,0,0,0-.14.32.58.58,0,0,0-.36.63.74.74,0,0,0,.16.42,6.67,6.67,0,0,0,.88.76,6.16,6.16,0,0,1,.14,1.11,1.89,1.89,0,0,1,.3.92,1,1,0,0,1-.16.72,1.17,1.17,0,0,1-.16,1.26,1.37,1.37,0,0,1-.36.25,2,2,0,0,0,0,.33l0,.13-.12.3a5.79,5.79,0,0,0,.35.54c.18,0,.29.12.35.31v-.08l0,.14a.33.33,0,0,1,0-.06l0,.54.1,1.18c0,.35,0,.53-.08.55a.84.84,0,0,0-.41.7c0,.36.27.52.74.49l.24-.06c.44-.48.74-.72.89-.73a1.42,1.42,0,0,1,.78.36.12.12,0,0,0,.12,0,1,1,0,0,0,.33-.13,1.26,1.26,0,0,1,.28-.14q.33,0,.33-.12c0-.05-.06-.11-.16-.18a1.55,1.55,0,0,1-.71-1.18.9.9,0,0,1,.46-.91l1.28-.09c.14,0,.37-.19.69-.55l.51-.55.46-.31.4-.15a1.05,1.05,0,0,0,.32-.54,1.57,1.57,0,0,0-.25-.84m3,6.63v-.08c0-.07.34-.08,0,.08m-1.76,0a3.1,3.1,0,0,1-.58.18v.1h.1v.08a.8.8,0,0,0-.58.13l-.1-.06-.45.42v.27h-.08l-.25.36c-.06.39-.14.59-.26.58a2.6,2.6,0,0,1-.37.74,4.38,4.38,0,0,1,0,.81,1.17,1.17,0,0,0,.13.71l-.07.1c0,.79.12,1.2.25,1.23V293H292v.3a1.26,1.26,0,0,1,.12.44l.2-.09c.18.11.27.24.26.38.56.29.83.52.82.69a.56.56,0,0,0,.2,0s0,0,0,0l.72.23a1.14,1.14,0,0,1,1,.23l0-.09a.41.41,0,0,1,.16,0c.11,0,.17-.05.18-.17H296l.14-.09h.1l0,.2h.1a.63.63,0,0,1,.05-.26.64.64,0,0,1,.23.11,1.64,1.64,0,0,1,.65-.07c.05-.22.15-.33.31-.32v-.08h-.13c0-.14.12-.2.24-.16v.17c.17.05.28,0,.35-.22a1.71,1.71,0,0,0,.47-.51,1.2,1.2,0,0,1,.43-.91l0-.26v-.14a.81.81,0,0,0,.22-.4H299l0-.63a1.76,1.76,0,0,1-.27-.62c.34-.11.5-.18.51-.22a.37.37,0,0,1-.16,0,1.59,1.59,0,0,1-.38,0,1.3,1.3,0,0,1,0-.14c0-.06-.09-.1-.27-.11v-.13l.11-.14v-.39c-.08-.1-.13-.18-.12-.24s-.19-.15-.19-.23c-.28-.23-.42-.4-.41-.51-.23,0-.33-.23-.31-.66l-.58-.36a.49.49,0,0,0-.22.07.46.46,0,0,1-.33-.15l.13-.14a.56.56,0,0,0-.11-.28l.16-.19-.22-.34a.33.33,0,0,0-.14,0l-.62-.32s0,.06-.14.05v0a.56.56,0,0,0,.42.32,1.13,1.13,0,0,0-.05.41.49.49,0,0,0-.3.08.28.28,0,0,1-.18-.06c-.13,0-.2.09-.2.15a4.48,4.48,0,0,0-.81-.1m1,8a.19.19,0,0,0-.11.23l.37.11.21-.09c-.16-.09-.23-.18-.23-.24ZM298,277.32a.52.52,0,0,1-.17.27.72.72,0,0,1-.28.18,2.15,2.15,0,0,1-.8.35,1.29,1.29,0,0,1-.91-.75,2.85,2.85,0,0,1,0-.55l.07-.17a.27.27,0,0,0,.17-.19s0-.1.07-.27a.22.22,0,0,1,.15-.21,1.61,1.61,0,0,1,1.59.3c.11.11.16.45.14,1m-1.73,2.48a.6.6,0,0,1,.22-.44c.16-.16.29-.24.4-.23a5,5,0,0,0,.81,0c.13.05.2.22.21.52,0,.66-.15,1-.57,1.09a1,1,0,0,1-.4.16c-.19,0-.29-.11-.31-.37l-.06-.36a.6.6,0,0,0-.11-.12l-.11-.08-.06-.08a.51.51,0,0,1,0-.09m4.77,2.38a1.09,1.09,0,0,0,.23-.73.48.48,0,0,0-.07-.24l-.28-.58-.75-.71a1.79,1.79,0,0,1-.11-1.36L300,277.4l.26-.53c0-.17,0-.42,0-.73a1.68,1.68,0,0,1,.15-.72.25.25,0,0,0,0-.31l-.39-.36a6.33,6.33,0,0,1-.84-.47,6.16,6.16,0,0,0-1-.6s-.18,0-.42.07a2,2,0,0,0-.48.2,7,7,0,0,0-.91.93,2.11,2.11,0,0,1-1.05.68c-.2.05-.38.25-.54.58a2.51,2.51,0,0,0-.35,1.1,1.59,1.59,0,0,0,.24.62,1.41,1.41,0,0,1,.25.62c0,.3-.23.61-.74.92a.32.32,0,0,0-.13.27c0,.12,0,.22,0,.29l-.17.29a1,1,0,0,0,.15.38,3.39,3.39,0,0,1,.1.51l.1,1.13a1.54,1.54,0,0,0,1.46.84,1,1,0,0,0,.66-.27.66.66,0,0,1,.3-.1l1-1.05a.76.76,0,0,1,.34-.16.38.38,0,0,1,.33,0,5.69,5.69,0,0,0,1.92,1.29s.08,0,.16-.11l.12-.13a1,1,0,0,0,.6-.42m5.86-6a2.48,2.48,0,0,0,0-1.66c-.09-.17-.31-.28-.66-.34a3,3,0,0,0-.48,0,.71.71,0,0,1-.59-.7v-.41a1.63,1.63,0,0,0-.09-.55,3.14,3.14,0,0,0-.75,0l-1.23,1.14A12.74,12.74,0,0,0,302,274.8c0,.07,0,.18.1.33a1.46,1.46,0,0,1,.16.3,1.09,1.09,0,0,0,0,.34.64.64,0,0,0,.12.25.88.88,0,0,1,.1.18l0,1.62a1.89,1.89,0,0,1-.15.29c-.1.18-.14.3-.11.37l0,1.52-.13.35a.88.88,0,0,0-.22.58,2,2,0,0,0,.75,1.45,2.23,2.23,0,0,0,1.46.73.63.63,0,0,0,.34-.08,5.12,5.12,0,0,0,.82-.73c.78-.26,1.17-.63,1.18-1.1a.52.52,0,0,0-.18-.42l-.6,0c-.36-.05-.56-.3-.59-.76a1.76,1.76,0,0,0-.31-.3c0-.37.07-.63.1-.77a9,9,0,0,1-.25-1.29,2.38,2.38,0,0,1,0-.37,1.44,1.44,0,0,1,.66-.93,1.14,1.14,0,0,1,.69,0,2,2,0,0,1,.37.24q.12.06.33-.09a.54.54,0,0,0,.24-.28m3.84,17.53a.48.48,0,0,1,.19-.13H311v.05a1.48,1.48,0,0,0-.25.08m.1.3s0,0,0,0l.13-.09v.1l-.07.07Zm.1-.66h.16v.14a.16.16,0,0,1-.16-.14M305.3,290v.2a1.5,1.5,0,0,1,.08.55c-.19.39-.31.58-.36.58,0,.5,0,.75.15.76a.61.61,0,0,1-.16.42v0l.26,0q.21,1.06.54,1.08c.11.21.19.31.25.31.13.25.24.38.32.39l.08-.14a.35.35,0,0,1,.32.29,1,1,0,0,0,0,.3,1.23,1.23,0,0,0,.48-.22,7.1,7.1,0,0,1,2.1.74.3.3,0,0,1,.14,0q0-.12-.09-.18l.06-.43a.53.53,0,0,1,.29.11l.05-.1v-.05l-.08-.15c.15-.34.5-.41.9-.29l.1,0s0,0,.1,0l-.16.2c.17,0,.25-.07.26-.13l.33.05v0l-.09-.14,0-.39.25-.37c0-.08-.06-.13-.19-.14a1.31,1.31,0,0,1,.2-.23v0a1,1,0,0,1-.12-.4.5.5,0,0,0,.43-.22.56.56,0,0,0-.34.14c-.09-.05-.14-.11-.14-.16l.21-.17a.09.09,0,0,0-.1-.1V292a5.86,5.86,0,0,1,.61-1,.3.3,0,0,0-.05-.2l.06-.08,0-.1a.33.33,0,0,1,.06-.13s-.17-.15-.52-.32l-.14.09h0l.05-.1c0-.07,0-.12-.14-.14a1.16,1.16,0,0,0-.07-.61v-.1l.05-.1a.22.22,0,0,0-.12-.06v-.22c-.12-.25-.2-.38-.24-.38s.11-.16.15-.16c0-.39.22-.56.51-.49l.21.15h.06v-.1a.45.45,0,0,1-.12-.38,1.21,1.21,0,0,0-.5-.39q-.3.24-.39-.12a.11.11,0,0,0-.1,0c-.18.11-.28.19-.28.24a.29.29,0,0,1,.27.23.53.53,0,0,1-.05.2c.06.16.13.24.22.24l-.05.24c-.2.12-.3.21-.3.28h-.14a1.06,1.06,0,0,1,.11-.39,1.22,1.22,0,0,1-.2-.71.29.29,0,0,1-.39-.1h-.14a.1.1,0,0,1-.1.11,1.84,1.84,0,0,0-.45-.14s0-.06,0-.06l0-.1a.6.6,0,0,1-.52-.29l-.1,0c0-.09-.15-.14-.46-.16a2,2,0,0,0-.54-.25c0,.1.05.14.21.14,0,.18,0,.36-.07.53l-.6-.08a1,1,0,0,0-.31.36c.34.32.1.5-.7.54a.11.11,0,0,0-.13-.08c-.28.24-.45.36-.53.35v0l.09.14v.06c-.25-.13-.45-.1-.49.26a7.73,7.73,0,0,0-.34,1.17l.06.1c.15,0,.23-.05.24-.17.06.1.2.29.36.29m.39,4.63h-.08c0,.16.08.25.31.27a1.2,1.2,0,0,0,1.07.62c.07-.32-.11-.54-.52-.66a2.26,2.26,0,0,1-.78-.22m6-1.72a.16.16,0,0,0-.17.15h.16Zm.32.17h-.11v.11H312Zm-7.35-3.06v0h-.1v0Zm4.71-15.49a2.18,2.18,0,0,0-1-.2c0,.07-.05.17-.19.31l-.23.2c-.25.5-.39.8-.43.91l0,.08-.19.31a.54.54,0,0,0,.12.23.59.59,0,0,1,.12.21,3.67,3.67,0,0,1,.05.67.37.37,0,0,0,.05.15,1.5,1.5,0,0,1,.09.18l.06.07,0,2.51a.43.43,0,0,1,0,.19c0,.08-.05.16-.08.25l-.09.22,0,.09a4.31,4.31,0,0,0,0,1.47.82.82,0,0,0,.62.62,4.27,4.27,0,0,0,.62,0,.93.93,0,0,0,.56.24,1.26,1.26,0,0,0,.86-.38,1.22,1.22,0,0,0,.47-.79c0-.11-.05-.24-.25-.4l-.36-.31a.88.88,0,0,0-.17-.12l-.16-.1-.13-.06a2.81,2.81,0,0,1-.07-.65,3.82,3.82,0,0,1,.16-.83,4,4,0,0,0,.16-.64l0-1.45a.54.54,0,0,1,0-.19,1.24,1.24,0,0,1,.31-.55,3.71,3.71,0,0,0,.35-.5s.05-.1.15-.22a.66.66,0,0,0,.15-.21c0-.09-.2-.31-.59-.68s-.69-.61-.76-.66m2.16-2.21a1.27,1.27,0,0,0,.3-.9.44.44,0,0,0-.38-.51c-.06,0-.32,0-.79.05a.91.91,0,0,0-.57.24l-.51.47a1.25,1.25,0,0,1-.27.12.44.44,0,0,0-.29.22l-.22.68a2.21,2.21,0,0,1-.36.33,1,1,0,0,0-.08.6.66.66,0,0,0,.44,0,1.09,1.09,0,0,0,.69-.07c.27,0,.71-.23,1.3-.79l.74-.49m4.94,7.71c.15.29.24.48.28.57s0,.09-.14.18a.72.72,0,0,0-.15.16,2.08,2.08,0,0,0,0,.37.36.36,0,0,1-.2.31.85.85,0,0,1-.73,0,3.32,3.32,0,0,1-.88-.9.34.34,0,0,1-.08-.23,2.1,2.1,0,0,1,.17-.46,2,2,0,0,0,.16-.45l.05-1.45v-.27c.35-.59.55-.9.59-.94a.4.4,0,0,1,.3-.09.88.88,0,0,1,.57.26.48.48,0,0,1,.19.49Zm2.8-3.09c.09-.18.12-.3.09-.37a.75.75,0,0,0-.17-.38l-.3-.28-.34-.31a2,2,0,0,0-.29-.23,1.78,1.78,0,0,0-.32-.2.47.47,0,0,0-.25-.07l-.17,0a2,2,0,0,1-.42,0,3.42,3.42,0,0,0-.3.4,1.83,1.83,0,0,1-.47.15l-.47.51a.17.17,0,0,0-.1,0s-.09.06-.17.17a.47.47,0,0,1-.22.21.34.34,0,0,1-.22-.27,1.86,1.86,0,0,1,0-.4l.07-.29.06-1.64a1.58,1.58,0,0,1,.16-.24,1.24,1.24,0,0,0,.15-.25l.05-1.56c0-.19-.12-.29-.28-.3a1.83,1.83,0,0,0-.67.23,3.42,3.42,0,0,1-.49.21,2.13,2.13,0,0,1-.43,0l-.93.46q-.64.4-.66.81a1.09,1.09,0,0,0,.09.41,3.55,3.55,0,0,0,.27.49,2,2,0,0,1,.18.33.09.09,0,0,1,0,.12l-.31.62-.48.46c-.18.17-.27.3-.24.39.32.34.56.57.7.69a1.59,1.59,0,0,1,.28,1,2,2,0,0,1,0,.35c0,.17,0,.26,0,.27a2,2,0,0,1-.28.29l-.08,2.07a1.61,1.61,0,0,0-.38.93,1.94,1.94,0,0,0,0,.29,1.67,1.67,0,0,1,0,.25.71.71,0,0,0,.24.42,1.39,1.39,0,0,0,.44.35,3.92,3.92,0,0,0,.5.12c.24.25.42.37.55.38a2,2,0,0,1,.36.36l.4.16a3.15,3.15,0,0,0,.48.16l.38.08a2,2,0,0,0,.47,0,1.08,1.08,0,0,0,.66-.44,2,2,0,0,1,.86-.65l1.39-.6a2.1,2.1,0,0,0,.13-.87l0-1.56a3.57,3.57,0,0,1,.11-.89.5.5,0,0,1,.07-.15q.06-.12.12-.27a.8.8,0,0,0,.06-.3c0-.68,0-1.12,0-1.33a1.63,1.63,0,0,1,.14-.31m3.81,2.81a1.81,1.81,0,0,0-.19-.56.62.62,0,0,1,0-.23s0-.06.09-.12l.16-.23a.42.42,0,0,0,.08-.22.81.81,0,0,0,0-.19,1.47,1.47,0,0,0-.12-.24c-.05-.08-.06-.14,0-.16q.35-.3.21-1.68s0,0,0-.08a.24.24,0,0,1-.06-.09l0,0,.37-2.28a1.4,1.4,0,0,1,.24-.39,1,1,0,0,0,.25-.38v-.36a2.38,2.38,0,0,0,0-.39c0-.51-.16-.8-.55-.87l-.38.15-.32.16-.21.09h-.52a2.21,2.21,0,0,1-.59.14.51.51,0,0,0-.38-.22.55.55,0,0,0-.46.26,1.08,1.08,0,0,0-.22.61,1,1,0,0,0,.24.52,1.33,1.33,0,0,1,.25.39,1.07,1.07,0,0,1-.32,1.3,1.1,1.1,0,0,0-.13.37l-.22.22a2.54,2.54,0,0,0-.07.71,7.77,7.77,0,0,0,.62.77c.12.21.06.44-.17.68a.53.53,0,0,1,.12.29l-.07,2-.23.47-.12.3c-.06.13-.1.21-.13.26a3.29,3.29,0,0,0,0,.51l-.32.85a.37.37,0,0,0,0,.12,2.78,2.78,0,0,0,1.29,1.25,2.12,2.12,0,0,0,.7.09,1.2,1.2,0,0,0,.5-.05,2.45,2.45,0,0,0,.74-.74,3.2,3.2,0,0,1,.82-.82.71.71,0,0,0,.29-.34.55.55,0,0,0,.06-.38,1.52,1.52,0,0,1-1.08-1.06Zm-.63,7.63h-.17c-.12,0-.18.1-.17.21a1,1,0,0,1,.33-.1Zm6.07-10.75a.73.73,0,0,1-.29.67l-.7.38a.68.68,0,0,1-.52.39c-.18,0-.3-.11-.35-.35a1.12,1.12,0,0,1,.16-.89l-.06-.64a.55.55,0,0,1,.37-.65.5.5,0,0,1,.4,0,3.65,3.65,0,0,1,.37.33l.39.12a1,1,0,0,1,.23.63m1.15-1.14a1,1,0,0,1,.06-.53,1.53,1.53,0,0,0-.58-.58,1,1,0,0,0-.38-.14,2.62,2.62,0,0,0-1.66-.81,1.93,1.93,0,0,0-1.11.64l-.73.76a5,5,0,0,0-.85.79l.21,3a1.79,1.79,0,0,1-.13.28,1,1,0,0,0-.14.3l.11,1.62.13.35a6.92,6.92,0,0,0,1.23,1.12,1.86,1.86,0,0,0,1.42.13,2.43,2.43,0,0,0,.63-.61c.29-.16.54-.29.74-.38a2.28,2.28,0,0,0,.45-.47c.22-.27.29-.44.21-.52h-1a2,2,0,0,1-1.29-1.12c0-.08,0-.19.15-.34l.27-.33q.74-1,1.11-1.08c.05,0,.11-.06.16-.16a1.35,1.35,0,0,0,.14-.3l.05-.17.83-1a3.22,3.22,0,0,0,0-.41m-2.53,11.33q.48,0,.45-.36c-.56-.13-.83,0-.83.29a1.27,1.27,0,0,0,.38.07m.27.06-.11.05a.27.27,0,0,0,.37.22l.11-.05c0-.1-.12-.17-.37-.22M343.8,278l-.34,3.31c0,.45-.28.66-.68.62a.94.94,0,0,1-.55-.31c-.21,0-.36-.05-.47-.07a.54.54,0,0,1-.48-.43l.06-.2a2.75,2.75,0,0,1,.12-.74,2.17,2.17,0,0,1,0-.49.24.24,0,0,1,.09-.14c.05,0,.08-.08.08-.11l.15-1.43c0-.08.17-.26.48-.55l.13-.15.13-.12a1.09,1.09,0,0,1,.66.07.54.54,0,0,1,.12.11,1.56,1.56,0,0,1,.13.13,2.68,2.68,0,0,0,.38.16s.05.13,0,.34m-4.28.41a2.57,2.57,0,0,0,.05.32q0,.25,0,.27l-.2,1.88a.8.8,0,0,1-.2.43.62.62,0,0,1-.37.26c-.19.05-.39,0-.6-.29l-.5-.64a.4.4,0,0,1-.07-.3,5.34,5.34,0,0,1,.19-.62.42.42,0,0,0,0-.15c0-.07,0-.15,0-.22l0-.08.17-1.58c0-.06,0-.22.22-.47a.41.41,0,0,1,.06-.11.88.88,0,0,0,.05-.1l.05-.08a.5.5,0,0,0,.05-.07l0,0,.06,0h.14a1,1,0,0,1,.61.34c.25.22.37.39.37.5q0,.64-.06.81m6.81-1.61a1.44,1.44,0,0,0-.45-1.07,1.49,1.49,0,0,0-1-.62,1.52,1.52,0,0,1-.3.17,1.12,1.12,0,0,1-.26.11l-.21.06a.48.48,0,0,1-.18,0h-.38a8,8,0,0,1-1.47.87c-.1,0-.17,0-.21-.19a1.65,1.65,0,0,0-.63-.95,1.54,1.54,0,0,0-1-.38.81.81,0,0,0-.57.26,6.58,6.58,0,0,0-.78.44,5.15,5.15,0,0,1-.82.43c-.08,0-.15,0-.21-.19a3.28,3.28,0,0,0-.81-1.23,2,2,0,0,0-1.2-.67h-.25a1.78,1.78,0,0,1-.36.2,3.74,3.74,0,0,0-.41.5c-.4.23-.61.48-.64.75a.45.45,0,0,0,.05.27,1.29,1.29,0,0,0,.32.18,3.12,3.12,0,0,1,.44.57c.4.35.59.57.58.67a5.39,5.39,0,0,1-.11,1,2.39,2.39,0,0,0,0,.35,2.56,2.56,0,0,1,0,.33.65.65,0,0,1-.17.23,2.4,2.4,0,0,0-.07.64,3.41,3.41,0,0,1-.3.64s0,.17-.06.43,0,.4-.11.45l.18.46a2.39,2.39,0,0,0,.5.22,3.54,3.54,0,0,1,.33.64q.58.42.84.57a4.36,4.36,0,0,1,.5.6,1.43,1.43,0,0,0,.39.06,1.53,1.53,0,0,0,.82.4l.17,0a1.78,1.78,0,0,0,.62-.39l.22-.25.26-.31.38.13.38.39a3.47,3.47,0,0,0,.51.12l.41.31a1,1,0,0,0,.29,0,1.68,1.68,0,0,0,.81.4c.28,0,.65-.2,1.12-.7l.27-.37a2.58,2.58,0,0,1,.58-.54,3.46,3.46,0,0,0,.42-.63l.5-.38a.58.58,0,0,0,.32-.39l.12-1.16a8.16,8.16,0,0,0,0-1.72,2.62,2.62,0,0,1,.2-1.24.6.6,0,0,0,.29-.45m-6.9,18.2v0h.05c-.21-.08-.16,0-.05,0m0,0a1.29,1.29,0,0,1,.09.36h.16c.4,0,0-.24-.25-.37m.51.6a.33.33,0,0,0,.37.39v0c-.07-.23-.19-.35-.37-.34m2.52,2.11a1.62,1.62,0,0,1-.46-.67.1.1,0,0,0-.11.1l.5,1h.11a3.15,3.15,0,0,1,0-.44m.42.4a1.23,1.23,0,0,0-.24-.72c-.09,0-.13.09-.12.16a1.1,1.1,0,0,1,.25.55Zm5.75-24a2.16,2.16,0,0,0-1-.21c0,.07-.05.17-.19.31l-.23.2c-.25.5-.39.8-.44.91l0,.08-.19.31a.54.54,0,0,0,.12.23.84.84,0,0,1,.12.21,5.09,5.09,0,0,1,.05.67.47.47,0,0,0,.05.16l.09.18.06.06,0,2.51a.33.33,0,0,1,0,.19,2.33,2.33,0,0,1-.07.25l-.09.23,0,.08a4.12,4.12,0,0,0,0,1.48.81.81,0,0,0,.62.61,4.27,4.27,0,0,0,.62,0,.83.83,0,0,0,.56.24,1.53,1.53,0,0,0,1.33-1.16c0-.11-.05-.25-.25-.4l-.37-.32-.16-.12-.16-.09-.13-.07a2.73,2.73,0,0,1-.07-.64,3.71,3.71,0,0,1,.16-.83,6.23,6.23,0,0,0,.16-.65l0-1.45a1.08,1.08,0,0,1,0-.19,1.35,1.35,0,0,1,.32-.54,4.26,4.26,0,0,0,.35-.51s.05-.1.15-.21.15-.19.15-.22-.2-.31-.6-.68a9.8,9.8,0,0,0-.75-.65m2.16-2.21a1.35,1.35,0,0,0,.3-.91.44.44,0,0,0-.38-.51l-.79,0a.91.91,0,0,0-.57.24l-.51.47a.88.88,0,0,1-.27.12c-.17.07-.27.14-.29.22l-.22.69a2.55,2.55,0,0,1-.36.32,1,1,0,0,0-.08.61.65.65,0,0,0,.44,0,1,1,0,0,0,.69-.07c.27,0,.71-.23,1.3-.79l.74-.48m5.06,4a2.46,2.46,0,0,0,0-1.67c-.09-.17-.31-.28-.66-.34a3,3,0,0,0-.48,0,.7.7,0,0,1-.59-.7v-.41a1.33,1.33,0,0,0-.1-.54,3.22,3.22,0,0,0-.74,0L352,273.38A13.08,13.08,0,0,0,351,274.5c0,.07,0,.18.1.34l.16.29a1.58,1.58,0,0,0,0,.34,1,1,0,0,0,.12.25,1.08,1.08,0,0,1,.11.18l0,1.63a2.15,2.15,0,0,1-.15.28c-.1.18-.14.31-.11.38l0,1.51-.13.35a.85.85,0,0,0-.22.58,2,2,0,0,0,.74,1.45,2.23,2.23,0,0,0,1.47.73.62.62,0,0,0,.33-.07,5.8,5.8,0,0,0,.83-.74c.78-.26,1.17-.63,1.18-1.1a.61.61,0,0,0-.18-.42l-.6-.05c-.36-.05-.56-.3-.59-.76a2.91,2.91,0,0,0-.31-.3c0-.37.07-.63.1-.76a9.27,9.27,0,0,1-.25-1.3,2.38,2.38,0,0,1,.05-.37,1.5,1.5,0,0,1,.66-.93,1.16,1.16,0,0,1,.69,0,3.32,3.32,0,0,1,.37.23c.08,0,.19,0,.33-.09s.22-.19.23-.27m5.15,4.39-.29.57c.09.38.14.58.14.61a.71.71,0,0,1-.16.39,4.55,4.55,0,0,1-1.15.75l-.27,0H359c-.07,0-.07,0,0,0a.66.66,0,0,1-.14-.17c0-.14-.13-.37-.25-.68l.09-2.36a3.37,3.37,0,0,1,.26-.41v-.27a.7.7,0,0,1,.15-.35c.09-.15.18-.22.26-.2l.38,0,.37,0a.67.67,0,0,1,.73.67c0,.31,0,.54,0,.71a2.37,2.37,0,0,0,.12.36.77.77,0,0,1,.08.44m2.28-2.25a.49.49,0,0,0,0-.62,3,3,0,0,0-1.08-1.21,1,1,0,0,0-.39-.12,2.27,2.27,0,0,0-1.12.51,2.12,2.12,0,0,1-1.08.48.85.85,0,0,1-.41-.18c-.05,0-.05-.15,0-.31l.06-1.52c.06-.14.15-.36.29-.66a1.68,1.68,0,0,0-.13-.26c-.08-.16-.11-.27-.08-.33l.24-.4c.1-.39.09-.65,0-.8a1,1,0,0,0-.65-.33,2.45,2.45,0,0,0-1.19.48,3.13,3.13,0,0,1-.63.25.87.87,0,0,0-.69.8,1.27,1.27,0,0,0,.12.57c0,.1.08.2.11.3a1.89,1.89,0,0,1,.06.21l0,.06c.05.15.08.25.1.29a.85.85,0,0,1-.06.4,2.13,2.13,0,0,0-.09.33.87.87,0,0,1-.52.31.86.86,0,0,0-.12.52,1.88,1.88,0,0,0,.09.56,3.73,3.73,0,0,0,.3.33,1.77,1.77,0,0,1,.13.9l0,.66c0,.07,0,.17,0,.29l0,.19-.09.16a3.29,3.29,0,0,1,0,.53A1.9,1.9,0,0,1,356,282a2.63,2.63,0,0,0,.17.42c0,.08,0,.21,0,.39s0,.3,0,.36a1.73,1.73,0,0,0,.53.56.83.83,0,0,0,.24.07c.46.42.77.63.94.63s.44-.22.9-.69c0-.26.14-.42.32-.47s.21.06.37.26a1.33,1.33,0,0,1,.24.39,1.35,1.35,0,0,1,.1.54,1,1,0,0,1-.5.79,1.66,1.66,0,0,0-.19.48l-.26.32c-.13.15-.19.26-.18.35a1,1,0,0,0,.5.14,2.38,2.38,0,0,0,1.44-.7c.3-.25.73-.65,1.31-1.18a3.64,3.64,0,0,0,.24-.45l.58-.52a.68.68,0,0,0,.05-.17.46.46,0,0,0-.07-.21c0-.08-.1-.16-.15-.24a.61.61,0,0,1-.09-.14c0-.05,0-.13.07-.24a2.22,2.22,0,0,1,.14-.22l.1-.11a5.58,5.58,0,0,0,0-1.08c-.1-.17-.18-.31-.26-.43a7.14,7.14,0,0,1,0-1,1.16,1.16,0,0,1,.29-.39,2.25,2.25,0,0,0,0-.66,1.06,1.06,0,0,1,.34-.76m7,16.84.14-.07-.06-.15a.58.58,0,0,1-.22.07v.14Zm2.76,0a.84.84,0,0,0,.45-.13c0-.47-.27-.61-.64-.53a1.32,1.32,0,0,0,.19.66M269,337.21a.25.25,0,0,0,.32-.15.25.25,0,0,0-.32.15m-.78-.11v.08l.15.24.48-.06v-.24a.88.88,0,0,1-.47-.1c0,.06-.06.08-.16.08m-.79.12v.08c.07.16.15.24.23.24h.16v-.39Zm-3.05,1.45h-.08c-.16.08-.24.15-.25.23a.26.26,0,0,0,.33-.22m8,8.19v-.16h-.16a.14.14,0,0,0,.15.16m1.53-2.69V344h-.08v.16Zm3.65-39.09c.37.06.58-.2.61-.78-.41.18-.62.44-.61.78m7.07,31.18c-.07-.15-.17-.22-.3-.2l-.1.31c0,.08,0,.13.16.13s.16-.08.24-.24m.63-3.72a.27.27,0,0,0,.17-.38c0-.08-.15-.17-.38-.27l-.16.06a.72.72,0,0,0,.37.59m1.12,3.47c0-.07.06-.11.16-.12s-.07-.22-.22-.39l-.34-1.22a2,2,0,0,1-.44-1c-.11,0-.2.12-.25.37a.24.24,0,0,0,.15.33c0,.63.15.95.35,1,.09.68.29,1,.59,1m.51,1v-.07q-.3-.27-.3-.39l-.16.06a.44.44,0,0,0,.3.39Zm2.21,0c.1,0,.16,0,.16-.12a4.21,4.21,0,0,0-1-.93q0,.07-.24.12a1.15,1.15,0,0,0,.29.65Zm1.55,8.75a2.5,2.5,0,0,0,.33-.7,2.09,2.09,0,0,0-.42.64ZM291,345v0l0,0m-.76,1.61a.41.41,0,0,1,.07-.17l0,0h-.09c-.08.12-.1.21-.05.27a.48.48,0,0,1,.1-.09m.21-.45a.66.66,0,0,0,.11-.24l-.12-.07,0,.08c0,.12,0,.2.05.23m.23,18.6,0,0a.36.36,0,0,0,0,.32l.24-.3,0-.07s-.08,0-.13.07m0-.19.21-.36-.06,0-.07.09a2.81,2.81,0,0,0-.08.31m.62-.94.08-.11c0-.09,0-.15-.05-.18l-.15.22-.13.08a.19.19,0,0,0-.06.22.57.57,0,0,1,.31-.23m-.07,1.71a1.48,1.48,0,0,0,.25-.31l-.06,0-.15.17-.1.15Zm3-5.51c-.1.16-.1.26,0,.31l.18.05c0-.25,0-.4-.08-.45a.48.48,0,0,1-.1.09m-1.1-14.78c0,.13,0,.22.09.26s.05-.06.1-.1a.36.36,0,0,0,0-.26.24.24,0,0,0-.16.06Zm1.33-.81c.24-.38.28-.63.11-.76s-.37,0-.72.34l.06,0,0,0a3.63,3.63,0,0,1-.62.45l0,0c0,.09,0,.14,0,.16a.4.4,0,0,1-.13.13.28.28,0,0,1,0,.13c.09,0,.39-.18.19-.3a.83.83,0,0,1,.47-.34,1.12,1.12,0,0,1,0,.45.31.31,0,0,0,.39,0c.41,0,.53-.16.36-.41m.45,15.06a.4.4,0,0,1,.06-.22.1.1,0,0,0-.14,0l-.05.08c0,.16,0,.21.13.12m.54.33c.11-.18-.14-.1-.18-.06a.26.26,0,0,1,.1.11Zm.08-.58.09-.2-.06,0-.07.12a.08.08,0,0,0,0,.12m3.31-6.69a.22.22,0,0,0,0,.22l.07-.06a.12.12,0,0,0-.1-.16m-1,3.44a2,2,0,0,0-.26.51l.06,0h.09s0,0,0-.06l.27-.35-.12-.13Zm-.55,1-.07.11a.13.13,0,0,0,.13-.07Zm-1.43,1.68s-.12,0-.24.12,0,0,0,0l.08.26c.1.06.18,0,.23,0l0,0,.12.13.08-.06c-.08-.05-.1-.11-.05-.18l-.09-.05-.14,0a1.17,1.17,0,0,0,0-.28m.28-1.38a1,1,0,0,0-.45.76s.07,0,.1,0,.44-.62.35-.72m.05-.33,0,0-.09-.06-.12.19s.09,0,.19-.09m.54.89a.58.58,0,0,1-.53.25l-.1.14c.19.18.25.32.19.42.16.1.29-.57.26-.41l.15-.16,0-.19a.77.77,0,0,1,.18-.15s0-.16.15-.42l-.06,0,0,0a.61.61,0,0,0-.09.26l-.15.16Zm-.17-1.91a1,1,0,0,0,.29-.45l0,0-.14,0-.15.43Zm.58.65-.09,0c-.05,0-.13,0-.25.11l-.09.2.12.08a1.43,1.43,0,0,0,.31-.34m.29-1.16q-.6.75-.06,1a1.55,1.55,0,0,0,.21-.44s-.06,0-.12,0l0-.07a.56.56,0,0,1,.36-.25,2,2,0,0,0,.29-.76.44.44,0,0,1-.19.3s-.07-.08-.11-.16-.13,0-.27.09-.11.3-.08.32m1.27-2.91a1.38,1.38,0,0,1,.14-.54l-.09-.05a1.48,1.48,0,0,0-.19.35.28.28,0,0,0-.14.28c0,.06-.1.07-.19,0s0,.09,0,.13l0,0-.19.1,0,.24L298,353a.08.08,0,0,0,0,.11,1.06,1.06,0,0,1-.27.29c.11.07-.21.23-.26.21l-.05.08-.11.29.09.06.25-.32.09-.2a.94.94,0,0,1,.28-.05c-.1.29-.11.46,0,.5a2.12,2.12,0,0,0-.29.65h.08l0,0,0,.12.06,0,.17-.26a.46.46,0,0,0,.05-.59l.08-.11a.2.2,0,0,1,.09.11,1.41,1.41,0,0,1,.37.06.47.47,0,0,0,.07-.42l-.06,0-.07.12-.06,0c.16-.25.19-.4.09-.46l.08-.06a1.12,1.12,0,0,0,.16-.37h-.09l-.06,0a.34.34,0,0,1,0-.35m10-17.68c0,.24.19.45.56.64h.08c0-.29-.21-.5-.64-.64m-1.81-2.52h.24c0-.08-.06-.12-.16-.12h-.08Zm.76-2v-.19h-.24l-.09.32c0,.15.11.21.23.2Zm1.76-.56h-.08c-.74.23-1.13.58-1.15,1l.07.26c.26.05.42-.09.49-.43.34,0,1.09-.84.67-.86m1.89,1.28a.17.17,0,0,0-.22.1.19.19,0,0,0,.21.18Zm-.17-1.25-.1-.06h-.16q-.12.54-.24.54a2.23,2.23,0,0,1,.09.49H311a.35.35,0,0,1,.06-.16h0a5.63,5.63,0,0,0,.19-.81m.06-1.25.06-.1-.11-.06h-.05l0,.7h.1Zm.21,1.42.11-.05a.38.38,0,0,1-.1-.22h-.05c-.28,0,0,.25,0,.27m-.08-4.56c.07,0,.11,0,.11-.1h-.11Zm.12.93s.4-.71.09-.76h-.06a.75.75,0,0,1-.12.32.42.42,0,0,0,.05.22c-.31.41-.32.73,0,1l.12-.37a.43.43,0,0,0,0-.16h.12v-.19a.14.14,0,0,0-.14.09Zm.4,2.19a1.38,1.38,0,0,0,.2-.81c-.3,0-.42.22-.36.74v.06Zm1.06-2.13V326h-.05l-.11.05q0,.13.15.12m26.42-17.69c.3-.27.45-.48.46-.63h-.22a1.21,1.21,0,0,0-.29.53v.11Zm-9,47.13h0c.07-.06.08-.08,0,0m-.9,4.61a1,1,0,0,0-.28,1.37h.15c0-.26.06-.38.23-.35l.22.15-.08.15v.22a1.09,1.09,0,0,0,.48-1.08.72.72,0,0,0-.45.28l-.14-.08.08-.15a1.48,1.48,0,0,0-.05-.51Zm-5.22.58h.26c.11-.07.16-.13.17-.2a1.18,1.18,0,0,0,.81-.44V360c-.54.06-.81.21-.81.46-.31,0-.45.12-.43.32m1.16-20.17h-.21v.19a.19.19,0,0,0,.21-.18m1.39.07v-.05c-.06-.14-.11-.21-.16-.21h-.22a.31.31,0,0,0,.22.34.27.27,0,0,1,.16-.07m4.93-1v.14h.12v-.14Zm-.23-.83v.1c0,.11.1.17.15.17a.15.15,0,0,0,.17-.1.26.26,0,0,0-.32-.17m-.84.81.11.21c.18,0,.27-.1.27-.2s-.35-.15-.38,0m-.79-.4a1.23,1.23,0,0,1-.55.26.55.55,0,0,1,.06.19h.42c.05,0,.35-.41.07-.46m-1.47,1.37v.05a.17.17,0,1,0,0-.05m-.75-.15c-.11.07-.16.13-.16.19l.11.21a.41.41,0,0,1,.27-.07v-.32Zm-5.38,13.12v.07h.1c.09-.09.16-.14.21-.13v-.21c-.14,0-.25.09-.32.27m-.87.31a.2.2,0,0,0,.16.2l.16-.12h.11a.41.41,0,0,0,.05.19.55.55,0,0,0,.33-.51c-.53.05-.81.13-.81.24m-1.26-22.6a.2.2,0,0,0-.09-.27l-.11.05c.11.21,0,.36-.19.42v.16h.11a.38.38,0,0,0,.28-.37m8.73-41.49v-.17l0-.27h-.11l0,.43Zm.1.16a.09.09,0,0,0,.11-.1h-.16Zm.71,20.88v-.11c-.4.1-.6.2-.61.3l0,.11a1.85,1.85,0,0,0,.56-.3M329.18,326a.35.35,0,0,1,.06-.16c0-.07,0-.1-.1-.12h-.05l0,.27Zm1.26-6.79c-.1,0-.27.1-.5.3,0,.08,0,.11.1.12.29-.07.42-.2.4-.42m1.67-.85.22-.1a.11.11,0,0,0-.11-.12h-.16v.1Zm1-.78-.05-.11a2.06,2.06,0,0,0-.66.3.65.65,0,0,0,.1.33h.16c.24-.36.39-.53.45-.53m1.05,11.55.11,0a.11.11,0,0,0-.11-.12h-.11v.16Zm5.25-32.46v-.05c0-.13-.11-.18-.21-.17a.65.65,0,0,0,.1.33.1.1,0,0,0,.11-.11m2.23,6.5V303l0-.11c-.07,0-.1,0-.12.11a.18.18,0,0,0,.16.22m9.45,24.12c-.23-.06-.36.08-.38.42h.15c.15,0,.22-.17.23-.42m.32-.57a.18.18,0,0,0-.22.13V327a.24.24,0,0,0,.23-.21m24-29.18v.22h-.07v-.21ZM358.79,300l-.54.56c-.2,0-.3-.1-.28-.3s.23-.24.6-.41c.15,0,.22.06.22.15m-3.42,28,2.79,2.09c-.34.09-.51.24-.52.47-.64.08-1,.26-1,.54a5.86,5.86,0,0,0-.58-.1,4.23,4.23,0,0,1-1,.61c-.19-.12-.28-.23-.28-.3a5.53,5.53,0,0,0-.59.12h-.29c0,.12.05.2.21.23v.07l-.15.21a2.32,2.32,0,0,0-1.12.54h-.07a.92.92,0,0,0-.06-.37q-.74,0-.75.48c-1.32,0-2.08.13-2.28.41.24,0,.33.13.28.31-.49.15-.74.28-.74.4-.44.1-.67.21-.67.34a2.7,2.7,0,0,0-1.21,1v.36c-.2,0-.37.13-.53.42a7.55,7.55,0,0,0-1.29,1.26c0,.14-.19.35-.53.63l-.17-.18.22-.6a.48.48,0,0,0-.06-.29c.38-.83.73-1.66,1.05-2.51l-.05-.36a3.57,3.57,0,0,1,.46-.71,4.79,4.79,0,0,1,.57-1.44c.17-.9.18-1.62.74-2.08a1,1,0,0,0,.26.81,1.47,1.47,0,0,0-.11-.88v-.14c.05,0,.07,0,.07.07.49-.17.74-.43.76-.77a4.84,4.84,0,0,0,.71-1.35,2.87,2.87,0,0,1,.71-1.36c.24-.77.43-1.15.56-1.14s.11.22.36.23v.15l-.08.14a.48.48,0,0,0,.36.23,21.3,21.3,0,0,0,3.12,2.1h.07l.15-.06c.31.3.55.46.71.46m-10.45,20.9c0-.19.14-.35.39-.49h.07a.71.71,0,0,0,.5.17l-.08.36a.85.85,0,0,1-.44-.09.94.94,0,0,1-.44,0m.62-.84v-.22a.85.85,0,0,0,.37-.13l.07.15c0,.09-.16.16-.45.2m1.46-1.84.16-.28c-.13-.21-.09-.36.1-.46l.28,0,.13.07a1,1,0,0,0-.31.72h-.13v-.09l-.22,0Zm6.84-13.71a.19.19,0,0,1,.15-.21v.22Zm4.09,3.31v-.3l.29.09v.22ZM342.14,301.7l-.21.73a.56.56,0,0,0-.11.38c-.15.48-.25.72-.31.71a.22.22,0,0,1,0,.08.22.22,0,0,0-.16.18c-.18-.13-.16-.29.08-.48v-.05h-.16l-.11.05c0-.09,0-.15.17-.16a.14.14,0,0,0-.11-.16c.19-.61.35-.91.48-.91v.11a.64.64,0,0,0,.35-.47Zm-.59-2.9v-.06a.15.15,0,0,1,.17-.1c-.06.11-.12.16-.17.16m-.24,5.74-.1-.22c0-.18.07-.28.18-.32h.05v0a1.78,1.78,0,0,1-.28.86s0,.05,0,.07-.7-.45.16-.42m-.61,1.55a1.73,1.73,0,0,1,.29-.48c-.05.22-.1.42-.15.62l-.09,0c-.05.39-.11.59-.19.59l-.15-.12h-.28a.22.22,0,0,1-.22.1c0-.14-.09-.2-.21-.17l-.11.05a.22.22,0,0,1,.12-.27c.18-.68.45-1,.8-1a.66.66,0,0,1-.12.38v.11l.22-.1v.11a.86.86,0,0,0-.29.47h.06a1.9,1.9,0,0,1,.33-.31m0-1.25v.06c-.06.1-.12.16-.17.15V305a.15.15,0,0,1,.17-.11m-.45-6a1.16,1.16,0,0,1-.06.16.56.56,0,0,1,0,.49.66.66,0,0,1-.32-.18c.06-.36.14-.54.24-.53h.05Zm-.26-1.75-.11.16-.27-.12s0,.05-.06.05c-.1.25-.18.37-.23.37a3.62,3.62,0,0,1-.44-1.16.48.48,0,0,1,.07-.21.42.42,0,0,1-.05-.22H339c-.32-1.08.39,1.09.42.35.23,0,.42.27.56.78m-.93.29a.37.37,0,0,0-.17.05l.05.11v.32h-.11v-.06a.89.89,0,0,1-.34-.77l.11-.16c.18,0,.34.18.47.51m-.3-.72c0,.08-.09.12-.16.1a3,3,0,0,0-.1-.38v-.06a.52.52,0,0,1,.25.34m-.08,12.54h-.11V309c.08-.19.19-.27.34-.25a.39.39,0,0,1-.23.37m0,1.95.25-.25a1.31,1.31,0,0,0,.05.15h0v.16H339l0,0s.05.06.08.06c.29.17.42.57.39,1.19-.05,0-.07,0-.07.07a2.21,2.21,0,0,1-.86-.55.61.61,0,0,0-.24-.52.78.78,0,0,0,.33-.3m-.28,30.18h.14a1.17,1.17,0,0,0,.64.39,5.43,5.43,0,0,0,.27,1.59c-.35.31-.33.5,0,.59v.07c0,.42-1.08,1.73-3.17,3.91h0a1.63,1.63,0,0,1,.38-.72,1.19,1.19,0,0,1,.61-.66c.18-.6.34-.9.48-.91l0-.33-.32.07s-.13-.23-.26-.68v-.26l.1-.19V344l-.1-.2v-.33H337a1.11,1.11,0,0,1,.28-.72c.17,0,.12.54.1.61h.11a2.17,2.17,0,0,0,.28-1.05h-.16a1.44,1.44,0,0,1,.27-.67v-.07l0-.1a.61.61,0,0,1,.27.08Zm-.17-45.5-.05.1c-.07,0-.1,0-.11-.11l.06-.11c.07,0,.11,0,.1.12m-.43-.08h-.11l-.15-.12.06-.1c.14.09.21.17.2.22m-.19-3.26v.38c-.12,0-.19-.07-.21-.23s.11-.16.17-.15ZM337.41,318c.38.36.61.54.71.54a4.84,4.84,0,0,1-.28,1.45c-.11,1.16-.23,1.74-.36,1.73a8.09,8.09,0,0,1-.57,3.11c0,.06.1.51.31,1.33l0,.73-.08.14c.16,0,.24.32.25,1,1,.51.5,2,.11,2.77a11.79,11.79,0,0,1-.24,1.53,2.08,2.08,0,0,0-.37-.24c0-.19-.1-.28-.32-.29.17-.33,0-.57-.4-.72-.07,0-.11,0-.11.16h-.28c-.17-.15-.26-.24-.26-.29a.6.6,0,0,0-.27.1c0,.06.1.19.31.39v.06l-.38-.13c-.1-.18-.19-.28-.26-.28v-.11h.1a.55.55,0,0,0-.35-.61c-.11-.3-.22-.45-.31-.45-.24-.34-.41-.51-.52-.51a3.9,3.9,0,0,0-.68-.68,1.16,1.16,0,0,1,.06-.16,4.71,4.71,0,0,0-1.46-1.26v.06c0,.11.11.16.16.17a.4.4,0,0,1-.06.16c0,.11.05.16.15.17v.1a.73.73,0,0,1-.69-.46.93.93,0,0,1,.18-.37v-.05a1,1,0,0,1-.42-.29.7.7,0,0,1-.58-.35h-.05c0,.3-.24.34-.45.2a.45.45,0,0,0-.42-.34.26.26,0,0,0,.15.39l-.06.1a.72.72,0,0,1-.53-.29H329l-.11.05a4.54,4.54,0,0,1-1.86-1.11v-.21a3,3,0,0,1,.74.46h.06c0-.21.13-.32.28-.31s0,.05.05.06a.28.28,0,0,1-.22.2l.05.11a2.64,2.64,0,0,0,.63.36h.06a.33.33,0,0,0-.21-.34.59.59,0,0,1,.07-.26c-.06-.3-.14-.44-.25-.45s-.37-.2-.37-.29a3.89,3.89,0,0,1-.9-.63,4.11,4.11,0,0,1-1.26-.92,1,1,0,0,1-1-.53v-.06c.11,0,.31-.13.61-.4.58-.39,1.14-.8,1.68-1.24h-.21v-.11a2.46,2.46,0,0,1,1-.5c0-.09,0-.14-.16-.17v0L329,319h.11l-.06.11v.05h.16v.05a2,2,0,0,1-.73.46v.06l.05.11a3.29,3.29,0,0,1,1.05-.39,1.21,1.21,0,0,0-.21-.28v-.11l.05-.11a.36.36,0,0,0-.21,0h-.06c0-.09.1-.14.28-.15a1.75,1.75,0,0,1,.67-.46.64.64,0,0,0,.88-.34s0,0,0-.06a.47.47,0,0,0-.16.05h-.06V318c.21,0,.32-.08.33-.26a1.32,1.32,0,0,0,.72-.4c.37,0,.55-.14.57-.47a2.77,2.77,0,0,0,.66-.35h.06v.22h0c.21-.07.31-.19.29-.37l-.15-.22-.11,0h-.11q.49-.43,1-.93v-.11a.4.4,0,0,1-.16-.06.55.55,0,0,1-.33.09v-.05a3.92,3.92,0,0,0,.56-.52c.22-.1.33-.22.34-.37a.66.66,0,0,0,.32.13l.17-.11H335v.16c-.3.19-.45.32-.46.41s.06,0,.06.06c.21,0,.41-.19.58-.59a2.86,2.86,0,0,1,.39.9c.38.35.56.63.55.82a1,1,0,0,1,.54,1c-.14,0-.22,0-.22.14a2.66,2.66,0,0,0,1,.84m-1-14.09c0,.07,0,.1-.12.1a2.45,2.45,0,0,1,0-.54c.11,0,.16.16.15.44m.16-10.58-.17.21-.1-.06a1.53,1.53,0,0,0,.06-.22h.11Zm-1.87,16.37h-.05a.92.92,0,0,0,.12-.27,1.91,1.91,0,0,0,.51-.52h.11V309a1.3,1.3,0,0,1-.68.68m.6-.14v.05h-.11v-.05Zm-.51,4.48h.06v.11h-.05Zm-1.51,1.08h.22a.29.29,0,0,1-.23.21Zm-.91,1.05v-.05c.15-.25.28-.37.4-.37.14-.17.23-.26.28-.26s0,.06,0,.06-.25.3-.73.62m.16.17c0,.23-.1.37-.4.42l-.11-.06a.45.45,0,0,1,.51-.36m-.67.46q.11,0,.15.12h-.16ZM329.63,318c.1,0,.16-.07.17-.21H330l.56-.3.15.22v.06a.67.67,0,0,0-.45.25h-.05l-.11-.06c-.06.09-.2.15-.44.2Zm-.23.1c0,.26-.15.34-.44.25,0-.19.14-.28.44-.25m6.83-12.8c-.2.36-.82,1.54-.82,1.54l.1.22s-.1.1-.18.32.1.16.16.16a8.59,8.59,0,0,1-1,1.65l0,.32-.06.22h.16v.11a3.68,3.68,0,0,0-.62.63l0,.11a.51.51,0,0,0,.17-.05.37.37,0,0,0,.21.06.89.89,0,0,1,.47-.79l.11.06h.32c0,.17-.12.26-.39.26a3.57,3.57,0,0,1-.8.94.35.35,0,0,1,.06-.16c0-.06,0-.1-.1-.11a1.4,1.4,0,0,0-.46.58c0,.09-.14.26-.4.52a2.83,2.83,0,0,0-.95.56c-.07,0-.1-.06-.1-.17h-.05l-.23.15a.66.66,0,0,1-.67.52.66.66,0,0,0-.08-.71v-.11c.06-.11.11-.16.17-.15l-.05-.12v-.16a2.25,2.25,0,0,0,.36-.85c0-.3-.21-.4-.74-.3a.56.56,0,0,1-.34.31c-.08.32-.19.48-.35.47-.42.63-2.1.73-2.39,1.31a3.81,3.81,0,0,1-1.65.53,5.88,5.88,0,0,1-.94.4l0-.27h.1v-.11h-.11l-.11,0a.73.73,0,0,0-.54-.13l0-.33a38.65,38.65,0,0,1,1.74-6.82c-.19,0,.35-2.86.67-2.85a3.12,3.12,0,0,1,.31-1,10.5,10.5,0,0,1,.23-1.72,1.34,1.34,0,0,0-.09-.44c.1-.4.2-.59.3-.59l0-.33.17-.21a.1.1,0,0,0-.1-.11A1.34,1.34,0,0,1,328,298l1.07.42h.11l-.05-.11v-.1c.52.08.73-.09.62-.52l.22-.05a.57.57,0,0,1,.22.07l.3.5h.05a.71.71,0,0,0,.07-.32l-.05-.11a.11.11,0,0,0,.12-.11,4.63,4.63,0,0,1,.48.19v.1l-.06.11L331,298h-.22l-.11,0a.25.25,0,0,0,.21.28c.25,0,.38-.07.39-.25l.91.31a.77.77,0,0,1,.67-.47v.28l-.28,0a.44.44,0,0,0,.05.27s0,0-.12,0l-.23.32h-.05l-.11-.06L332,299v.16a.5.5,0,0,1,.54.07s0-.05.06-.05,0-.1-.11-.11.1-.12.17-.1a.51.51,0,0,0,.43.23v.06l-.06.1.63.68h.05v-.16l-.1-.17v-.05l.11-.16a1.11,1.11,0,0,0-.14-.44,2.72,2.72,0,0,1-.49-.07c-.13-.19-.26-.29-.36-.29v-.16H333c0-.25.13-.35.32-.32,0,0,0,.14.11.34v0l-.12-.3h.07l.11.06-.06.23c.16.36.39.85.41.44l.11.05a1,1,0,0,1-.25.65.64.64,0,0,1,.2.44h-.16v.1c.06.06.37.47.38.13.15.07.22.16.2.28l-.17.21v.11h.11a16.79,16.79,0,0,0,1.07,1.56c.22.52.35.78.4.78a.76.76,0,0,1-.12.37.54.54,0,0,1,.05.22,2.41,2.41,0,0,1,.24.66,1.42,1.42,0,0,1,.29.78m-.31-3.06c0,.09-.09.12-.16.1l-.41-.61v-.22c.07,0,.16-.06.28-.2a1.07,1.07,0,0,1,.28.93m-.66-1a.92.92,0,0,1-.37-.13l.11-.15c0-.16-.05-.26-.26-.29v-.21l.06-.11c-.34-.29-.45-.45,0-.49.1,0,.15.15.14.44a1,1,0,0,1,.34.94m-.6-10.4-.11.16-.38-.12H334v-.11a.21.21,0,0,1,.28-.09v.1a.75.75,0,0,0,.33,0Zm-1.17.82v.06c-.26.2-.39.38-.4.52-.5-.05-.75-.19-.74-.41-.36-.1-.53-.24-.53-.4a.35.35,0,0,0,.06-.16h.22c0,.11.07.18.21.23l.17-.11h.16c.08.11.36.2.86.25M333,291c0,.27-.3,0-.33-.06Zm-1.1,6.91V298h-.11v-.11Zm.1.16h.11v.05H332Zm-.21-5.38v-.05c.29-.09.47,0,.48.23l-.12.16-.1-.06c-.07-.18-.16-.27-.26-.28m0-1.52h-.32a.52.52,0,0,0-.26-.18v-.1c.05-.12.12-.17.22-.16q.42.13.36.45m-1.54-.66c-.11.2-.2.19-.27,0Zm-.58-1.82c0,.18-.26.11-.27,0Zm-.28.32a.15.15,0,0,1,.1.17h-.16v-.06Zm-.21,8.89c.06-.1.12-.16.17-.15h.11v.16l-.27.05Zm.05-7.76c0,.07-.11.14-.28.21a.87.87,0,0,1-.43-.18.73.73,0,0,1-.55.19,1.83,1.83,0,0,0-.8-.2v-.05l.17-.21a3.66,3.66,0,0,0,.43.13v-.11H328c.11.06.16.11.16.17l.16-.1-.09-.23.05-.1c0-.11,0-.17-.1-.17l.07-.27c.79.06,1,.22.68.46v.06c.23.08.33.22.31.39m-.2-1.58a.17.17,0,0,1-.17.15l-.16-.11.06-.11Zm-.86-.2.37.07v.16a.66.66,0,0,1-.43-.12Zm.67-.57q0,.43-.66.3a.05.05,0,0,0-.06-.06c0-.11.19-.19.56-.25Zm-2.54-.32v.11h-.27c0-.07,0-.1.11-.11Zm-2.09,34.66c0-.07.12-.12.34-.15V322c0,.07-.11.14-.28.21h-.05Zm1.67,9.57h-.22v-.11h.21Zm-1.8-1.16c0,.17.13.37.41.61l-.38-.07c-.06.22.07.34.37.34v.11l-.05.11a0,0,0,0,1,.05.05l.27,0,.48.24c.08.46.29.69.62.67l-.05-.11q-.17,0-.36-.39V332h.11l.47.45c0,.18.28.45.73.79q.44,0,.57-.63h.05c.26.22.44.34.53.34-.06.11-.12.16-.17.16l-.39.25c0,.13.07.19.26.18l.18.21-1.15.18c-.44.21-3.2.9-3.44,1.27a2.9,2.9,0,0,0-1.44.64,1.16,1.16,0,0,0-1.08.78l-.12-.08c-.12-.59-.65-2.52-1.19-2.72a1.09,1.09,0,0,0-.31-.66q.12-.33.24-.78a.93.93,0,0,0,.18-.43,5,5,0,0,0,.44-1.28,1,1,0,0,0,.69-.95h.1a4.44,4.44,0,0,1-.27,1.35l0,.27h.11a3.39,3.39,0,0,1,.61-1.55,1.44,1.44,0,0,1,.85.52.34.34,0,0,0,.16-.05c.26.37.45.56.58.57l.11-.05.59.19c.07,0,.11-.05.11-.16.26-.07.39-.17.39-.31Zm-5,2.12a1.69,1.69,0,0,1-.15.37l-.2-.19c.06-.19.17-.25.35-.18M319,303v.16c-.05.12-.12.17-.22.15l-.11-.06.07-.26Zm-.36,29.51a.19.19,0,0,1,.18-.21.19.19,0,0,1-.12.22Zm6.13,8.86.06-.14H325v.07c-.08,0-.12,0-.12.11h-.1Zm1.85-6h-.21c-.06-.29.05-.43.33-.39a.57.57,0,0,0-.12.39m2,3.19h-.16a.11.11,0,0,1,.1-.12h.06Zm.1-.19h0a.19.19,0,0,1,.11-.2H329c0,.07-.08.14-.23.2m.77-4.12a.42.42,0,0,1-.18-.08.59.59,0,0,1,0-.08h-.06l0,0a.23.23,0,0,1,.32-.09Zm.24-.37c-.07,0-.1,0-.11-.12v-.1c.07,0,.12,0,.15.11Zm.93-.34h.11c.78.35.86.6.24.77a.81.81,0,0,1-.2-.44h-.27l-.11-.06c.15-.1.23-.18.23-.26m-.46.63h-.27V334h.11c.1.06.15.11.15.17m-.07-.82v-.16a.29.29,0,0,1,.32.12v.05a0,0,0,0,1-.05-.05l-.11.05Zm2,1.28a1.38,1.38,0,0,0-.11-.24h.29s0,0,0,0v0h0c0,.14-.08.23-.27.26,0-.05-.07-.1-.22-.14l-.16,0a.88.88,0,0,1,0-.28h.11c0,.11.07.2.21.28Zm.31-3.52v-.16h.17a.3.3,0,0,0,0,.16ZM318.81,351a15.07,15.07,0,0,1,1.11-3.49,5.72,5.72,0,0,0,.92-.92v-.05a3.14,3.14,0,0,1-.75.39c.16-.69,1.47-1.49,1.48-2a1.41,1.41,0,0,0-1.18.64l-.12-.07a1.86,1.86,0,0,1,.5-1.11c.65-.49,1-.77,1-.85a5,5,0,0,0,1.09-.9l-.06-.14-.53.39a.33.33,0,0,0-.16-.07v-.05l0-.14c.43-.14.65-.32.66-.52.21,0,.43-.17.65-.51l.36.13h.12l-.06-.12v-.14h.05l.21.26a.35.35,0,0,0,.12-.45l-.11-.21v-.19h.32l.16.12a2.15,2.15,0,0,0-.11.47l0,.14c.61-.05.91-.14.92-.27.66-.1,1.16-.07,1.46-.49a2.55,2.55,0,0,1-.76.18c-.27-.51-.4-.7-.64,0l-.48-.06-.21.05-.27-.53c.08,0,.12,0,.12-.13l.37.07c.24-.26.44-.39.59-.38l1-.65c.13,0,.43.05.91.14l.27,0v-.07l-.1-.21v-.06a.59.59,0,0,0,.59-.32c.08,0,.23.11.46.33H329l.11,0v.06q.89,0,1.35,0a2.16,2.16,0,0,0,.62.4h.22v-.06l-.05-.14c-.1,0-.26-.19-.48-.55h0l-.27.28-.12-.28-.26.06c-.26,0-.54-.22.17-.32,0-.1,0-.17-.16-.19s.22-.16.65-.2a.27.27,0,0,0,.16.07.58.58,0,0,1,.63-.07l.06.08v.14c-.34,0-.07.23,0,.26l.16-.2.12.15a.17.17,0,0,0-.06.12H332a1.57,1.57,0,0,0,.24.23h.11a1.79,1.79,0,0,0-.42-.62.3.3,0,0,1,.24-.07,2.07,2.07,0,0,0,.54.39.19.19,0,0,1,0,.1h0l.06,0v.09h.1v-.14h0l0,0a.18.18,0,0,1,.15.12l-.1,0V339h0a.21.21,0,0,0-.13.2c-.17-.37-.32-.37-.46,0a2.14,2.14,0,0,0-.31.11l0,0H332v.08c-.05,0-.08.06-.08.09.4.35.56.43.09.72v.14l.54.41-.06.12a1,1,0,0,0-.33-.06v.12a2.92,2.92,0,0,1,.69.94h-.06l.06.4a1.11,1.11,0,0,1,.35.92,4.75,4.75,0,0,0-.38,1,18.2,18.2,0,0,1-3.06,3.32c-.36.2-.53.37-.54.51l-1,.71c-.09,0-.24.2-.44.6-.06,0-.09-.05-.1-.14s-.16.09-.16.13c-.33.12-.49.26-.49.45a2.2,2.2,0,0,0-.38.66,2.09,2.09,0,0,0-1.08.57c-.11.36-.28.53-.49.53a1.43,1.43,0,0,1-.55.51c-.18.3-.36.45-.54.46a.85.85,0,0,1-.75.52V353l.05.12a1.92,1.92,0,0,0,1.13-.38c0,.05.11.12.32.21s.27-.06.27-.2A2,2,0,0,0,326,352h.16a.5.5,0,0,0,.06.26,12.35,12.35,0,0,1-1.68,1.17c0,.07.07.14.2.21l0,.12a3.37,3.37,0,0,1-.86-.34s-.06.09-.17.13c-.1.84-.25,1.26-.44,1.25a.93.93,0,0,0,.09.46h-.1q-.19-.33-.36-.33v-.12c.22,0,.33-.06.33-.2l-.12-.07h-.16c-.17.27-.29.4-.37.4a.16.16,0,0,0-.22-.08l-.11.07c0,.09.11.14.33.14v.14a1.44,1.44,0,0,0-.38.19c0-.1-.21-.21-.52-.34a.43.43,0,0,1-.17.07l-.26-.08V355c.1,0,.3-.1.59-.32a.51.51,0,0,0-.47-.54.68.68,0,0,0-.11.33,2.26,2.26,0,0,1-.44-.13,1.48,1.48,0,0,0-.75.11s0-.05-.1-.05v-.21H320V354h-.43l-.1.06a1.38,1.38,0,0,1,.05.45h-.38c-.14-.11-.22-.2-.22-.27a1.2,1.2,0,0,1-.62-.33l.05-.14c.33,0,.65-.25,1-.78-.12-.23-.37-.27-.65-.2l-.36-.14v-.07l.33-.32v-.07c-.06-.13-.11-.19-.16-.19.14-.64.25-1,.34-1m.51,5.08v-.19a1,1,0,0,0,.53-.27,1.26,1.26,0,0,0,.82-.57h.2v.19h-.1c0,.13,0,.22.15.28v.19c-.07.17-.16.25-.27.25v.21H321c0,.09-.24.25-.71.46-.05,0-.13-.18-.25-.54a2,2,0,0,0-.65.13Zm8.54.71c.17,0,.26-.08.26-.18.29.06.43.15.42.26-.33.21-.56.18-.68-.08m3.52-7.26-.1-.07.06-.12.11.06Zm-8.22,10.18c.55-.48.95-.49,1.18-.05a.9.9,0,0,0,.59-.2,1.22,1.22,0,0,0,.92-.64h.1l-.05.14c0,.3.67-.05.59,0l.21.26h.05l.71-.72c0-.22-.31-.12-.38-.07l-.27.53h-.16a.78.78,0,0,1,.66-.79,2,2,0,0,1,.64-.52c0,.19.28-.05.28-.19.27,0,.5-.19.7-.59a5.11,5.11,0,0,0,1.51-1.22v-.07h-.06c-.2.17-1,.71-1,.31a2.57,2.57,0,0,0,.71-.71,1,1,0,0,1,.53.2,1.34,1.34,0,0,1,.59-.25V355a1,1,0,0,0-.53.13c-.11,0-.16,0-.16-.14a.48.48,0,0,0,.43-.32.88.88,0,0,0,.86-.58c0-.2-.07-.33-.32-.4a1,1,0,0,1,.55-.39c0,.41.73-.17.33-.25l.1-.27.11.07.22-.33H333l.1.07c.08-.25.19-.39.33-.43l0,0a1.12,1.12,0,0,1,0,.41,1.65,1.65,0,0,0-.22.65h0c-.48.09-.64.28-.49.6l.21-.05a2.75,2.75,0,0,1-.53,1.05c-.5.34-.65,1.54-.67,2.08h.07l.15-.07-.07-.15v-.14c.25-.33.45-.5.6-.49a4.67,4.67,0,0,1,.77-1l.14.08a1.59,1.59,0,0,1-.4.79,106.48,106.48,0,0,0-1,2.28l0,.44.07.15a3.52,3.52,0,0,1-.69.92,1.24,1.24,0,0,0,.33.67c0,.24-.06.36-.16.36,0,.92-.27,1.37-.71,1.35a3,3,0,0,0,0,.73c-.14.2-.1.37.13.52a.86.86,0,0,0-.22.81q-.89-.17-1.86-.45a.48.48,0,0,0-.32.13,8.94,8.94,0,0,1-1.65-.42v-.07l.22-.07c0-.16,0-.27-.22-.33v-.14a1.56,1.56,0,0,1,.48.29l.11-.07a4.65,4.65,0,0,1,.75.2l0-.12c-.05-.56-1.69-.9-2.07-.64a.36.36,0,0,1-.22-.07.45.45,0,0,0-.46-.26,6.12,6.12,0,0,0-1-.68c-.18-.35-.33-.54-.46-.54v-.39a1.28,1.28,0,0,1-.32-.2q0-.15-.48-.66m2.25,6.49v-.06a.18.18,0,0,1,.22.06c.34,0,.48.15.42.4a.66.66,0,0,1-.64-.4m5.47-2.08-.07-.15.16-.14a5.08,5.08,0,0,1,.66-1.87.66.66,0,0,1-.09.29c0,.25.12.37.2.37a2.24,2.24,0,0,0-.35,1.59c.17,0,.28-.09.3-.35h.15a.36.36,0,0,0,.27.37h.15V364l.28.3c0,.44-.17.65-.46.64a1.62,1.62,0,0,0,0,.26,1.7,1.7,0,0,0-.42-.11v-.14c.22,0,.33,0,.33-.13a2,2,0,0,0-.64-.46l-.53-.08Zm1.61,8.26v-.07l.1,0a1.42,1.42,0,0,1,.05.22v0l-.1.05a.58.58,0,0,0-.05-.26m-.05-8.85h-.08a2.84,2.84,0,0,1,.1-.65c.36,0,.54-.17.53-.41-.34-.09-.5-.22-.49-.39a2.54,2.54,0,0,1,.47-.93l.14.08a2.82,2.82,0,0,0-.18.87.59.59,0,0,1,.22.08,1.62,1.62,0,0,1-.71,1.36m.91-24.1h0s0,0,0,0a.68.68,0,0,1-.23-.05h0c.08-.14.15-.14.22,0m0-.76h0l0-.07.16.12-.08.11a.17.17,0,0,1-.09-.17m.6-2.56.11-.05a.2.2,0,0,1,.11.2h-.06a.59.59,0,0,1-.16-.15m.12,29.82a.14.14,0,0,0,.15-.14l.14.08a1,1,0,0,0,.09.29l-.07,0a.77.77,0,0,1-.25,0l-.06-.17m.4-29.06c.18,0,.28.06.31.17h-.16c-.1-.06-.16-.12-.15-.17m2.46-4.35s.05,0,.06-.11l.16.09c0,.11-.06.2-.09.29s-.1-.11-.13-.27m0,.82c0,.07,0,.13,0,.2a.71.71,0,0,0-.63-.4l0-.43h.27a1.18,1.18,0,0,0,.36.62M339.36,311h.06l-.12,0Zm-.12-.12h0l0,.05Zm.22-2.21-.33,0v-.1l-.11,0h-.11a3.78,3.78,0,0,1,.19-.64,0,0,0,0,1,.05.05c.14,0,.35-.11.61-.35a.43.43,0,0,1,.22.06l.27-.1s0,.06.05.06c-.16.32-.28.48-.34.48l0,.11a2.63,2.63,0,0,0,.3-.09l-.06.16-.47.19s0-.06-.05-.06Zm.48.23h-.17a.58.58,0,0,0,.12-.27H340a.37.37,0,0,0,.05.17s-.06,0-.06.1m-.24,1.29a3,3,0,0,1,.31-.32v.24a.34.34,0,0,1-.09.14l-.21-.06m.67-2.68a.64.64,0,0,1,.07-.16l.13-.05a1.8,1.8,0,0,0-.06.22Zm-23.18-16.81v.11c0,.08-.18.18-.5.3-.56-.24.32-.4.51-.41m-1.56,3.41v.05a3.7,3.7,0,0,1-1.18.88l-.1-.06c.13-.29.26-.43.4-.42a1.53,1.53,0,0,1,.88-.45m-.26-.29c-.08.16-.15.25-.23.27H315V294a.27.27,0,0,1,.33-.15m-.88,8.17v-.11c0-.07.11-.14.28-.21v.11c0,.07-.11.14-.28.21m-.32-6.69q0,.2-.45.36s-.07-.06-.1-.17l.07-.27.38,0Zm-1.39.91v.06c-.21.32-.34.47-.4.47s.11.11.33.12a1.16,1.16,0,0,0-.3.53.13.13,0,0,1-.1-.16l.06-.11a.43.43,0,0,1-.22-.06c0-.08,0-.28.08-.6h-.05c-.19.14-.3.21-.34.2l.07-.27c.26,0,.38-.08.39-.14a.37.37,0,0,1,.21.06l.22-.1Zm-1,1.16c0,.2-.09.29-.29.26v-.06a.37.37,0,0,1,.06-.21Zm-.2.7h.06l.1.06s0-.06.11-.05c.09-.3.24-.44.46-.42l0,.6a.8.8,0,0,1-.5.41s-.09-.13-.15-.39h-.06l-.11.05a.58.58,0,0,0,.05.17c-.05.17-.14.24-.28.2a.85.85,0,0,1,0-.32Zm-.64-1.44c-.15.38-.37.55-.68.51v-.05c.16-.35.38-.5.67-.46m-.8,2.3v.22c-.16.35-.31.42-.44.19a.59.59,0,0,0-.28.1v.33c.13,0,.21,0,.22-.21h.11l.16.12H310l.55-.14.1.06c.06-.1.12-.16.17-.15s0-.1-.1-.12l.17-.21a.8.8,0,0,1,.32.12.75.75,0,0,1,.33,0v.11c-.19.65-.53.94-1,.88v-.27h-.05a3,3,0,0,1-.72.35q.06-.37-.21-.33l-.45.3H309v-.17l.17-.26-.1-.06-.28.21-.21-.23a.75.75,0,0,1,.51-.63.51.51,0,0,1,.22.06l.44-.25Zm-1.52,2.65h.1l0,.49c-.16,0-.27,0-.31-.23s.08-.19.23-.26m.47.4c0-.18,0-.29.17-.32,0,.18-.06.29-.17.32M312,329.88a1.16,1.16,0,0,0-.18.37h-.05v-.06a.83.83,0,0,0,.18-.42H312Zm1.3-5.11,0,.44c0,.07,0,.1-.11.1l0,.22c0,.32-.05.49-.13.48-.05.47-.13.74-.25.81a.46.46,0,0,0,.05.21c-.09.54-.17.81-.25.81l0,.11q0,.27-.12.27c-.09.43-.21.64-.35.63l-.47.74,0,.28a.85.85,0,0,0-.35.74.4.4,0,0,1,.16.06c0-.18.06-.28.17-.32a1.44,1.44,0,0,0-.07.54.59.59,0,0,0-.28.1.64.64,0,0,0,0,.27,3.07,3.07,0,0,0-.07.6h.1l.35-.36v-.06c-.13,0-.18-.08-.16-.17a.74.74,0,0,0,.55-.19c-.23.64-.39,1-.47,1-.06.44-.16.71-.31.8s-.1-.06-.1-.17a0,0,0,0,0-.05.05q-.66,0-.63-.57s.07,0,.11-.15a1,1,0,0,0-.11-1.31c-.39.2-.3,1.4-.34,1.67l.1.22a1.33,1.33,0,0,1-.46.79v.06l.27.06.22-.1a.29.29,0,0,1,.21.23c0,.11-.08.16-.11.16,0,.15,0,.28-.05.4l-.1-.05.06.31c0,.08,0,.15-.05.21s-.25,0-.33-.21a2.45,2.45,0,0,1-1-1,1.23,1.23,0,0,1,.4-.55.64.64,0,0,0-.23-.59c0-.06-.27-.2-.8-.39h-.16a3.43,3.43,0,0,0,.72.64v.06h-.24a2.28,2.28,0,0,0-1.59-.49c-.06,0,1.53.69,1.26,1.1,0,.19.24.38.72.58V334l-.08.13a.35.35,0,0,1,.31.23c.21.2.32.35.32.46.18,0,.35.15.53.45a6.53,6.53,0,0,0-.22.9l-.38-.07a.37.37,0,0,1-.06.21.83.83,0,0,0,.24.61v.1h-.21q-.07-.51-1-1.23a.57.57,0,0,1,.16-.36c0-.14-.19-.35-.56-.64l-.24.13a1.5,1.5,0,0,0-.95-.16c0-.09,0-.16.16-.18,0-.19-.11-.27-.22-.28.09-.09.4-.62.46-.2a1,1,0,0,0,.72-.5.91.91,0,0,1-.55-.76h-.48a6.76,6.76,0,0,0-1.4-.38.42.42,0,0,1,.43-.32c.37-.67.72-1,1.06-1a2.91,2.91,0,0,0-.05-.51h-.08c-.53.14-.81.38-.82.73l-.16-.07a3.5,3.5,0,0,1,.43-.87c0-.06,0-.15-.14-.26l-.16.06h-.08v-.12a4.4,4.4,0,0,0,.52-1.13h-.31v-.38q.19-.46.57-.42l.16.07a1,1,0,0,0,.33-.43q-.18-.26-.3-.27a1.28,1.28,0,0,0,.09-.25.67.67,0,0,1,.77.29c-.37.55-.74,1.1-1.09,1.67v.06c.52.08.78.19.77.35l.4-.05v-.25l-.15-.2v-.06c.65,0,.95.3,1.27-.07l-.4,0v-.19c.43-.17.65-.33.65-.48h.16l.23.13.47,0a.4.4,0,0,0-.07-.19c.27-.1.4-.22.41-.37.61.15.91,0,.88-.34a1,1,0,0,1-.39-.14c-.21,0-.31.07-.32.17l-.39-.08c-.11.47-.35.65-.73.55V328l.42-.56a2,2,0,0,1,.52-1.12c.08-.59.19-.88.35-.87.15-.59.26-.88.35-.87l-.06-.32a5.33,5.33,0,0,0,.37-1.32l-.15-.26c.12,0,.23-.21.33-.64a2.23,2.23,0,0,0,.29.27,2.06,2.06,0,0,1-.18,1.34l.06.32-.25.31a5,5,0,0,1-.12.94c.06,0,.08,0,.08.07a3.93,3.93,0,0,0,.56-.13c0,.23-.05.37-.06.41h.11l.07-.22c.3,0,.56-.17.78-.56Zm-.37-1.59v.11h-.11v-.11Zm-.06,1.52v.22a.49.49,0,0,0-.17,0s0,0,0,0a.21.21,0,0,0,0-.1c0-.09.1-.13.18-.11m-2.24-3.36s0,.06-.08.06l.05.64a1.52,1.52,0,0,1-.47,0V322a2.4,2.4,0,0,1,.19-.76h.15Zm-.85-15.65v-.25H310a3.79,3.79,0,0,1,0,.58h-.16Zm0,15.55a1.38,1.38,0,0,1-.19.69.56.56,0,0,1-.23-.07l-.16.06a.68.68,0,0,0,.37.58,2.09,2.09,0,0,1-.45,1.13l.1-.32a.64.64,0,0,0-.07-.19,1,1,0,0,0-.4.11c-.11,0-.24-.11-.38-.33.07-.3.16-.44.25-.44,0-.84.37-1.25,1.16-1.22m-.23-.39a.44.44,0,0,1-.53-.34l.09-.31h.31a1.12,1.12,0,0,1,.13.64m-.68-2.45a3.44,3.44,0,0,1,0,.46l-.12,0a.4.4,0,0,0,.05.22.3.3,0,0,1-.17.13,1.32,1.32,0,0,1,0-1.15,1,1,0,0,0,.25.32m-1,8.29.08.13a.34.34,0,0,1-.4.11.37.37,0,0,1,.32-.24m.53-3.22.24-.12h.16l0,.44a.71.71,0,0,1-.66.74v.19a.8.8,0,0,0,.32-.05,4.54,4.54,0,0,0,.78.22.69.69,0,0,1-.42.55h-.16v-.19h-.16c0,.42-.15.63-.42.62l.08.13a1,1,0,0,1-.18.56l-.16-.07h-.16c-.26.09-.4.23-.41.42a1.44,1.44,0,0,0-.42.75h-.24a1.56,1.56,0,0,1,.1-.57c-.12-.17-.08-.31.1-.44,0-.11-.1-.17-.31-.2q0-.13.24-.12v-.06l-.23-.27.25-.3-.07-.13c0-.08.05-.12.16-.12a1.22,1.22,0,0,0-.13-.58c.28,0-.11-.44-.22-.45v-.13l.18-.44h.24l.05.58-.09.31a1.53,1.53,0,0,0,.46.27c.2-.41.39-.62.58-.61a1.89,1.89,0,0,1,.28-1l.15.07Zm-.16-3.81v.06H308l0-.32c.08,0,.15.09.22.27m-.36-12.14v.19a.28.28,0,0,1-.32.17v-.38l-.15-.19v-.19c0-.08.06-.12.16-.12a.7.7,0,0,0,.3.52m-.33,13.63h.08l.06.32v.13l-.09.31h-.08l-.23-.14Zm-.86-15.52v.31h-.16l0-.32Zm-.18,8.37h-.16a.78.78,0,0,0-.14-.58c0-.31.37.27.3.59m-.41,43.89a.57.57,0,0,1,.13-.08c.14-.56.27-.84.4-.84l.07-.14.2.34v.12h-.42l-.11.47c0,.17.11.26.26.26v.14a1.15,1.15,0,0,1-.52-.26m1,5.8a2.23,2.23,0,0,1,.17-.91h.11l.11.07c0,.18,0,.26-.12.26-.1.38-.19.57-.27.58m5.1-31.47.06-.27h.06v.11c0,.11,0,.16-.11.16M300.11,350.7l-.09-.05c0-.16.12-.26.25-.26a.92.92,0,0,1-.16.31m.9-4.52-.15.17c0,.1,0,.15,0,.17l-.11.09a.86.86,0,0,0-.1.35.51.51,0,0,1,0,.48l-.09-.05,0-.08-.06,0c-.2.25-.16.41.11.47a.53.53,0,0,0-.06.22c.37,0,.4.26.06.61a.35.35,0,0,0-.2,0c-.14.26-.17.42-.06.48-.13.48-.13.75,0,.83a2.6,2.6,0,0,1-.22.28l0,0a.53.53,0,0,1,0-.62h-.08a2.71,2.71,0,0,0-.19.61.44.44,0,0,1-.16.11l0-.07,0,0,0,.08a4.65,4.65,0,0,1-.26.77l-.12-.07-.15.22c-.09.2-.08.33.05.39h.08a.73.73,0,0,1-.05.33c-.11.07-.19.1-.22.08s-.06.15-.06.16a.23.23,0,0,0,.39,0q.12-.61.27-1.23l0,0c.22.09.36.09.42,0l.13.13-.1.15-.13.07,0,0c.26.16.47.1.43.36l-.15-.09-.07.11c.08.21.1.36,0,.44l.06,0,.14,0,.18.11a.48.48,0,0,1-.1.09.29.29,0,0,1,0,.31c.25.14.31.28.19.42a.39.39,0,0,0-.2,0c-.07-.06-.09-.12-.05-.19l-.17-.05c.17-.25.16-.42-.05-.49l-.05.07-.07.43a1.76,1.76,0,0,0-.26.77c-.2.36-.27.56-.21.59-.19.38-.26.58-.22.6l-.15.16a6.41,6.41,0,0,1-.39.86l-.16.11q.08,0-.15.48l-.15.11a.82.82,0,0,0-.11.3,1.56,1.56,0,0,0-.43.72c-.1.16-.2.21-.3.14l.1-.15c-.12-.07-.07-.28.13-.65-.31-.18-.23,1.42-.58,1.21l-.35.15c-.11.21-.14.33-.1.35-.11.21-.14.33-.1.35a1,1,0,0,1-.21.19,3,3,0,0,1-.18.72c-.16.25-.31.38-.46.4s0,.14.11.21a4.23,4.23,0,0,0-.34.84.42.42,0,0,0-.17.46l0,0a3,3,0,0,0-.34,1c.33.11.39.37.19.78l-.13.08a1.69,1.69,0,0,0-.7.62l-.06,0c.05-.07.06-.12,0-.14l-.26.26a.64.64,0,0,1,0,.31,1.28,1.28,0,0,0-.32.23l-.06,0,0-.13a3.81,3.81,0,0,0,.47-.91l-.09-.05a.4.4,0,0,1-.13.13.19.19,0,0,1-.09.21s-.15,0-.35.09l-.05-.18h-.09a1,1,0,0,0-.08.32l-.24.31c.09.24,0,.59-.31,1.06a.44.44,0,0,1-.2.5l-.06,0,0-.07-.18-.11c.18-.09.22-.2.14-.33a1.23,1.23,0,0,0,.31-.75c-.06,0-.24,0-.54.2-.24-.13-.16-.37.26-.72l.09.05-.27.41.09.05a.54.54,0,0,0,.1-.2c.18-.16.31-.25.23-.43l-.82.18,0,0a1.2,1.2,0,0,1-.68,1.24c-.08.09-.27.12-.56.09-.05,0,0-.1,0-.21h0c-.18.48-.36.77-.54.85a12.09,12.09,0,0,1-1.29,1.7l.08.12c-.48.2-.72.32-.72.37a3,3,0,0,1,.56.05v.06a.9.9,0,0,0-.8.43A6.9,6.9,0,0,0,287,369a.12.12,0,0,0,0,.17c-.07.1-.3.18-.71.25-.27.53-.52.64-.75.32a.39.39,0,0,1-.28.1.81.81,0,0,1,0,.25,1.71,1.71,0,0,1,.61.27.44.44,0,0,1,.39,0,.19.19,0,0,1-.15.15,2.05,2.05,0,0,1,.27.25v.06l0,0h-.19l-.22.08c-.29-.17-.44-.29-.44-.34a1.45,1.45,0,0,1-.36-.09c0-.07,0-.18,0-.32a.31.31,0,0,0-.45.14l-.09-.05c0-.05,0-.08,0-.09-.16-.35-.19-.61-.09-.77a1.15,1.15,0,0,1-.12-.59,2.35,2.35,0,0,1-.35-.67l-.06,0h0l0,0h-.07l-.08,0a2.08,2.08,0,0,1,.07-.58h.1c0-.1,0-.21.07-.34a2.58,2.58,0,0,0,0-.68.71.71,0,0,0,.05-.58l0,0a.2.2,0,0,0-.21-.08l-.16.06c0-.23-.44.19-.17.18a1.72,1.72,0,0,0,.17.19l-.4.33h-.07c0-.07,0-.11.06-.11s0-.11,0-.16a.38.38,0,0,0,.07-.18h0a2.44,2.44,0,0,1,.38-.66l-.08-.1v-.1c0-.07.08-.13.18-.18-.15-1-.56-4.24,0-5.1a13.39,13.39,0,0,1,.85-4.7,3.59,3.59,0,0,0,.24-.94,7.41,7.41,0,0,0,.43-1.5,7.56,7.56,0,0,0,.49-1.46l0,0a15.21,15.21,0,0,0,.59-1.41c.3-.42.41-.37.32.14l0,0h.08c.24-.42.42-1,.65-1.37l0,0a.77.77,0,0,0-.31.28l0,.09s-.05,0-.1.1,0-.09,0-.2l.23-.28a1.48,1.48,0,0,1,.62-1c.13-.2.25-.4.36-.61l0,.13,0,0a3.73,3.73,0,0,1,.64-.4c.23-.21.39-.3.47-.28.18-.17.29-.25.32-.23l.31-.48c.08-.06.13-.08.16-.06s0,0,0-.06l.17-.2.09-.21.49-.48,0,.1a2.46,2.46,0,0,0,.09-.29,2.48,2.48,0,0,1,.63-.4l.05-.07a.6.6,0,0,0-.1-.11l0-.07c.1.06.2,0,.3-.14l.12.07c-.57,1.28.16.38.43.05.09,0,.37-.09.83-.38a.41.41,0,0,0,.07-.17c.28-.46.42-.54.42-.26H294l0,0,0,.12.09.06a.32.32,0,0,0,.27-.16c.24.06.41,0,.49-.11a1,1,0,0,0,.74-.49l-.13-.13c.08-.06.33-.12.19.11l.06,0,.68-.21,0,0a.21.21,0,0,1-.08-.26c.1-.18.29-.2.58-.06,0,0,.08.27-.09.2a.63.63,0,0,0,0,.46l.06,0a1.54,1.54,0,0,0,.63.06l-.15-.66q.19-.14.3.18l.86.15c0-.05,0-.13-.09-.26h-.08c-.06,0-.08-.12-.05-.24l0,0c.17,0,.27,0,.31,0s0,.07,0,.14a.4.4,0,0,0,.38.07.28.28,0,0,1,.14.24c.23.2.35.36.36.47a.74.74,0,0,0,.29.12c0,.26,0,.4,0,.43a.07.07,0,0,1,.11,0c0,.17,0,.26.06.3l.29.06a.54.54,0,0,0-.06.23c.07.14.09.24.06.29l.14,0q.34.48.3.69l-.05.08-.08.05a.49.49,0,0,0,.19.48Zm-5.27-4.26.4,0s0,.06,0,.11a2.8,2.8,0,0,1-.73.29s0-.07,0-.13a1,1,0,0,1,.36-.3m-.48-.54.06,0,0,0a.53.53,0,0,0-.26.15l0-.07a.31.31,0,0,1,.27-.15m2.87.77-.08.06c-.22-.09-.34-.12-.37-.07-.21-.07-.33-.07-.37,0a.63.63,0,0,1-.16-.2s-.1,0-.23,0,0-.1-.11-.22l-.23,0,0-.08-.4,0,0,0-.12-.12a.61.61,0,0,1-.16.11s0-.09,0-.2a1.53,1.53,0,0,0-.32-.09l0-.09a2.32,2.32,0,0,1-.39-.18l0-.07.22-.08a.24.24,0,0,1,.09.11c.08,0,.2,0,.37-.25.25,0,.39,0,.42,0a3.41,3.41,0,0,1,1.52.49,1.55,1.55,0,0,0-.19.36s-.05,0-.1.09a.33.33,0,0,1,.13.18l.44.1c.06,0,.06.11,0,.22m-3.37-.19a.62.62,0,0,1-.24.16l-.61.62a1.94,1.94,0,0,0-.54.45c-.05,0,0-.12.05-.27a.18.18,0,0,1,.18-.15c.27-.36.44-.52.52-.47.3-.37.51-.52.62-.46s0,.09,0,.12m-.56-.69c-.07.07-.13.08-.19,0l.09-.21c.14-.08.17,0,.1.17m-1.58,2.62,0-.08a.58.58,0,0,1,.37-.24c.23.14-.37.31-.34.32m0-10.86v.07l-.4,0V333a.81.81,0,0,0,.39.08m-.42,3.72-.1.09-1,.52c0-.09,0-.18-.14-.21,0-.16.2-.34.57-.55a1.6,1.6,0,0,1,.68.15m-.36-3.94-.31-.08c0-.07.05-.11.16-.12s.17.1.15.2m-14.64,3,.09-.16q.18.09.15.24h-.24Zm-1.31-.53.08-.15c.16,0,.23.2.22.48v.15c-.07.18-.18.25-.32.23Zm.13-1.17.23.16a.57.57,0,0,0-.09.23c-.15,0-.57-.36-.14-.39m-.49,4.06c-.05,0-.1-.08-.14-.24a1.39,1.39,0,0,0,.1-.7h.08c.37.2.29,1.14-.13,1.26v-.16Zm-.84,1.31h.24a.9.9,0,0,1-.26.54l-.15-.09a1.31,1.31,0,0,0,.17-.46m-.38,1.55v.16H274q.09-.18.24-.15m-.74.84h.32l-.67,1H273a1.27,1.27,0,0,1,.51-1m17.34-4.41a1.8,1.8,0,0,0-.36.24h0c0,.05-.16.11-.48.17l-.47-.15-.16.06a6,6,0,0,1-.69-.35,1.56,1.56,0,0,0-.48,0,.42.42,0,0,0-.15-.26c-.07,0-.16.08-.24.25-.08,0-.32-.06-.71-.16l-.08.13a6,6,0,0,0-.94-.11v.13l.31.27a1,1,0,0,0,.31-.05c.2,0,.33.2.38.58.51.15.77.27.77.35a12.48,12.48,0,0,0,1.47.35,1.67,1.67,0,0,1-.78.17,1.38,1.38,0,0,1-.11.39,7.91,7.91,0,0,0-1.37.87,9.72,9.72,0,0,1-1.25.77c-.39.39-.67.58-.82.59-.58.51-1.17,1-1.78,1.46a9.86,9.86,0,0,1-1.37,1.21c-.48.6-.77.91-.88.92-.16.29-2.1,2.77-2.69,3-.31.52-.55.79-.74.8-.07,1.16-2.33,3.5-2.84,4.58-.93-.55-1.73-1.23-2.68-1.72v.15h-.24c-.37-.84-1-.93-2.07-1.18v.31a4.18,4.18,0,0,1-.79-.11l-.08.15-.16-.08c0-.05,0-.08.09-.08l-.15-.24a2,2,0,0,1-1.18-.05q0-.46.57-.45a18.53,18.53,0,0,1,1.55-1.35c.95-.34,1.43-.66,1.46-1a1.85,1.85,0,0,0,.81-.75h.08l.16.09.24-.31a.2.2,0,0,1-.22-.24h-.16l-.4.22-.15-.08a3.64,3.64,0,0,0,.42-.77c.32-.2.49-.35.49-.45.81-.65,1.22-1.05,1.23-1.21-.57-.19-.61-.38-.13-.56.14-.41.31-.61.49-.61a8.7,8.7,0,0,0,1.51-2.21q0-.24-.15-.24c.34-1,.66-1.13,1-.44h.08a1.57,1.57,0,0,0,.51-.77,2.08,2.08,0,0,0,.5-.84l-.14-.24a.24.24,0,0,1,.24-.23l.15.08.09-.15c0-.94,0-1.89,0-2.83-.26-1.11-.52-1.67-.79-1.69a1.22,1.22,0,0,0,.09-.46c-.2-.22-.3-.38-.29-.49-.42-.91-.74-1.36-1-1.37,0,.05-.05.07-.16.07a.41.41,0,0,0,.14.55l.51.81c-.44.53-.7.1-.9-.82-.1,0-.15,0-.17.15l-.39-.1a3.14,3.14,0,0,0-.89-1.13l.08-.16a1.63,1.63,0,0,1,.94.2l.32-.15c-.3-.48-.58-.73-.84-.74a.47.47,0,0,0-.21-.64,1.82,1.82,0,0,1-.8.52.93.93,0,0,1,.13.56h-.24c-.14-.12-.76-.73,0-.79l0-.47.08-.16a3.36,3.36,0,0,0-.63.06,2,2,0,0,1-.77-.27,9.47,9.47,0,0,1-2.41-.65,3.35,3.35,0,0,0-1.27.1,4.18,4.18,0,0,0-2.22.46l-.2.05a2.87,2.87,0,0,1,.85-.71c.11-.11.44-.36,1-.76l.58,0v-.15c.3-.19.46-.33.46-.41a.64.64,0,0,0,.6-.42,13.49,13.49,0,0,0,1.65-1.09,6.44,6.44,0,0,1,.92-1.06,16.52,16.52,0,0,0,.95-1.93,3.84,3.84,0,0,0,.55-1h-.14c0-.63.06-.95.11-.94.28-.41.78-2.18,0-2.33l.09-.37a2,2,0,0,1-.18-.95c.08,0,.24-.4.49-1.15a.58.58,0,0,0-.07-.22c.06,0,.17-.21.32-.64a1.92,1.92,0,0,0,.32-.57,1.21,1.21,0,0,0,.47-.93l-.06-.15c-.1,0-.16.12-.17.36-.28,0-.05-.64,0-.66a17.29,17.29,0,0,0,.91-2.58,1.67,1.67,0,0,0-.05-.59,7.55,7.55,0,0,1,.5-1.43c-.08,0-.15-.11-.21-.31l.25-.71c.06-1.37,2.06-2.35,2.12-3.63.65,0,1-.15,1-.55a1,1,0,0,1-.64-.39,4.15,4.15,0,0,1,1.3-1.62h.08a12,12,0,0,0-.09,2,2.49,2.49,0,0,0-.41,1.08,1.83,1.83,0,0,0-.62.85.76.76,0,0,0,.06.36c0,.2-.09.29-.16.29-.14,1.35-.39,2.1-.74,2.23,0,0,0,.17.12.44-.35,1.44-.75,3-1.21,4.54v.44a1.72,1.72,0,0,0-.39.64l.06.29a17.84,17.84,0,0,0-1.4,5.56,2.47,2.47,0,0,0-.25.64.53.53,0,0,0,.07.22c-.12.6-.26,1.55-.41,2.83a1.89,1.89,0,0,1,0,1c.08,1,.15,1.53.23,1.54a14.46,14.46,0,0,0,.25,2.56c.13,1.32.39,2,.79,2,.34.94.66,1.41,1,1.42l.9,1a1.16,1.16,0,0,0,.79-1.35l-.13-.45a.74.74,0,0,0,.09-.36l-.07-.15c.59,0,.79-.23.61-.63q0-.19.45-.27.32-.72.54-.78a8,8,0,0,1,.36-1.66,1.12,1.12,0,0,0,.44.09c.12-.19.23-.28.3-.28a1.72,1.72,0,0,1,.12-1.09.5.5,0,0,1-.29-.15,2.8,2.8,0,0,1,.17-.65l-.13-.3c0-.58.18-.87.47-.85L281,324a2.14,2.14,0,0,1,.19-.59l0,0a8.44,8.44,0,0,1-.12,1l.24-.11h.08l.27.43c-.05.14-.1.3-.16.48v.14c-.1,0-.2.12-.3.35V326c.62,0,.32.61.1,1,.16.29.28.44.35.45A.47.47,0,0,0,282,327c.39,0,.63-.2.73-.66.08.18.15.28.2.28l0,.82c.07.13.15.2.23.2s0,.07-.08.06l.06.39-.09.31.27,1,.24-.12-.06-.32s0-.3.11-.82h.24c0,.27-.05,1.58-.54,1.56a2.78,2.78,0,0,0,.67,1v.13l-.31.05V331c.26,0,.39.14.38.39l.31,0c.15-.32.29-.63.44-.94l.43,1v.25c.22.05.57.42,1.06,1.13a.54.54,0,0,1-.09.25c0,.74.14,1,.45.65l.15.07h.08l.24-.11h.24a.43.43,0,0,1,.3.39c.52.13.77.31.76.54a1.13,1.13,0,0,1,.74,1.17l-.39.05c.05.11.45.43.47,0h.16l1,.8v.06a.53.53,0,0,0-.49.24c0,.4.3.58,1,.55Zm-.43-.34-.32-.07v-.13c.21.07.31.14.31.2m0-1v.19l-.15-.07c0-.08.05-.12.16-.12M289,333l-.75,1-.91-1h.16v-.06a4,4,0,0,0-.58-1v-.07q.12-.18.24-.18a.42.42,0,0,0-.06-.25.51.51,0,0,0,.08-.19c.2.09.46.53,0,.51a.86.86,0,0,0,.44.78c.33-.3.5-.48.5-.55a.87.87,0,0,1,.78.28c.69.4.73.66.12.77m-.86-2.07c-.11.19-.22.29-.33.31s-.25-.14-.22-.27a.42.42,0,0,1,.48-.23.44.44,0,0,0,.07.19m-4-4.16a.5.5,0,0,0-.09.25H284l-.15-.07c0-.21.09-.33.25-.37a.43.43,0,0,0,.07.2m-.19.69a.6.6,0,0,1-.09.37h-.32v-.13a.37.37,0,0,1,.4-.23m-2.22-5.68s.07,0,.09.12v.07a.91.91,0,0,1-.3-.58l.09-.12c-.05,0-.08-.07-.07-.2h0a.13.13,0,0,1,.08,0,.68.68,0,0,0,.2.52v.07Zm-11.66-21.19a2.5,2.5,0,0,1-.25.79l-.14-.07c.1-.49.23-.72.39-.72m-2.35,25.12a.63.63,0,0,1-.47.64c-.16,0-.23-.11-.21-.23a2.33,2.33,0,0,1,.68-.41m3.74,20.22a.14.14,0,0,1,.15.16l-.58.77h-.24l-.15-.09c0-.34.29-.62.82-.83m-4.08,3.6h.08v.16h-.08Zm-1.49-11.54,1-.42-.06-.4a4.56,4.56,0,0,1,2.62-.52c.2.06.3.25.29.56.41.16.64.38.68.66a3.68,3.68,0,0,1,.57,1.44h.15a3.45,3.45,0,0,1,.21-1.09c.46.54.39,1.09-.23,1.64a.23.23,0,0,1,.07.32c-.09.15-.17.23-.25.23a5.08,5.08,0,0,1-1.08,1.52,1.52,1.52,0,0,1,.05.56,3.74,3.74,0,0,0-.58.76c0,.38-.38.84-1.08,1.37-.58.7-2.89,3.57-3.84,3.54v.15l.15.24c.06.28-.08.43-.41.46-.33.79-.7,1-1.13.74-1.43-.17-3.22-.45-5.39-.85v-.08q.51-1.81.87-2a3,3,0,0,1,.95-2.08,9.05,9.05,0,0,0,1.31-3.17c1.43-1.52,2.4-2.26,2.92-2.24a1.84,1.84,0,0,1-.29-.48c.1,0,1.61-1,1.59-.33.57,0,.87-.15.88-.52m-.76-8.84a2.34,2.34,0,0,0-.86.44,1.48,1.48,0,0,0-.37.06,2.89,2.89,0,0,1-.1-1c0-.07.21-.16.6-.26h.07v.29c-.08.14-.16.21-.23.21.16.32.3.3.44-.05Zm-2,9.91h.15a.64.64,0,0,0-.17.31c-.26,0-.39-.07-.38-.17.26,0,.39,0,.4-.14m-.59-8.52c0-.19.18-.27.4-.22v.16Zm1.16-.82-.51.22a.14.14,0,0,1,0,.06l0-.11c-.12.05-.18.13-.16.24a2.77,2.77,0,0,1-.73.16v-.36h-.07l-.23.13h0l-.07-.05c0-.3-.06-.46-.2-.47l.16-.21c.23.19.35.32.35.38a.66.66,0,0,0,.22-.06h.07l0,.44h.15l.15-.06c0-.05,0-.08-.07-.08,0-.26.21-.51.61-.78h.15a1.35,1.35,0,0,0,.25.54m-3.57-17.22-.16.5h-.15a.73.73,0,0,0-.06-.22c.05,0,.12-.14.23-.42.1,0,.15.05.14.15m-.4.86a.27.27,0,0,1,.13.37l-.08.14a.29.29,0,0,1-.13-.37Zm-.34,2.9h.22a14,14,0,0,0,.44,1.84v.07a1.79,1.79,0,0,0-.24.5c-.28,0-.56-.27-.84-.77l0-.36.07-.14c-.08,0-.13-.06-.14-.15l.16-.22v-.14l-.19-.74V316l.08-.14.14.08-.08.14c0,.1.05.15.14.15l.1-.51h.14a.53.53,0,0,0,.07.22.17.17,0,0,0-.09.22m-1.22,1.33c.28,0,.49.22.63.61a2.38,2.38,0,0,0-.24.57h-.07a1.07,1.07,0,0,0-.33-1Zm.65-22.71a2,2,0,0,1,.26.88l-.17.43a1.42,1.42,0,0,0-.57-.31,7.13,7.13,0,0,0-.38-1.4c.21-.33.37-.5.46-.49q.43,0,.48.75Zm-1-1.65v.07a1.08,1.08,0,0,1-.5-.09,2,2,0,0,0-.7-.68v-.15l.08-.14c.1,0,.15,0,.15.08.27,0,.6.31,1,.91m7.93,60.87h-.16v-.16h.15Zm-.29,1.09c.36-.56.75-.59,1.19-.11a1.05,1.05,0,0,0-.56.3,1.29,1.29,0,0,1-.63-.19m1.3-4.66h-.16v-.23c.11,0,.16.06.15.16Zm-.08,5.66c0-.09.06-.14.16-.15.58.12.86.24.86.35s-.17.23-.25.22a1.32,1.32,0,0,1-.77-.42m.81-.6a.25.25,0,0,1,.15.32.2.2,0,0,1-.23-.16Zm-.09-1.65c.32.06.39.17.07.31l-.23-.16c0-.09.06-.14.16-.15m-.15-3.78V350c.11,0,.16.06.15.16Zm-.05,4.79V355H267a.33.33,0,0,1-.22-.4h.08q.31.21.3.33m-.28-4.57h.24l.15.08c0,.11-.06.16-.16.15a.25.25,0,0,1-.23-.24m.52,4.5a.55.55,0,0,1,.42-.53h.23v.31h-.16v.23c.21-.08.84-.14.94.2v.23l-.09.16a.46.46,0,0,1,.3.56h-.32c-.16-.43-.29-.65-.36-.65a1.61,1.61,0,0,0-.93-.51m1.52-.49c-.21,0-.39-.14-.54-.41v-.24l.09-.15c.45.42.68.67.68.74a.52.52,0,0,0-.24.06m2.52,15h.16v.15c-.09,0-.14-.06-.15-.16m.21-16.5.09-.16v-.15l-.08-.16c.34,0,.49.11.46.33l-.17.23Zm.06,15.72c.08-.15.17-.23.24-.22l.18-.21a6.61,6.61,0,0,0,.16.93l-.3,0a.68.68,0,0,0,0-.14q-.18-.32-.3-.33m1.83-1.46a.38.38,0,0,0-.09-.16.33.33,0,0,1,.07-.16.64.64,0,0,0,0-.07.54.54,0,0,1,.26-.11c.08-.36.19-.54.33-.53h0l-.27,1,.1.37a4.19,4.19,0,0,0-.29,1.2h-.07a2.1,2.1,0,0,1,0-1.5m0,1.66h.14l0,.54h-.07l-.09-.26Zm8,7.6c0,.09,0,.14-.14.17-.7-.07-.6-.12.14-.17m3.21.71c0-.33.24-.47.84-.43v.17a1.35,1.35,0,0,0-.78.26ZM296.28,360q.17.27.12.33l-.22.08-.07.11c0,.09,0,.15,0,.17-.15.18-.27.25-.35.2-.46,1.3.25-1,.5-.89m.15-.42a1.29,1.29,0,0,1,.31-.28c-.07,0,.91-1.4-.07.42,0,0,0,0-.05,0a.77.77,0,0,1-.19-.16m1.64-1.82a2.51,2.51,0,0,1,.48-1.31,2.72,2.72,0,0,0,.62-1l.16-.17,0-.24a6.48,6.48,0,0,0,.33-.57,0,0,0,0,0,.05,0c.2.21.25.38.17.51l-.08.05c.07,0,0,.28-.26.73a.54.54,0,0,0-.29.19c0,.59-.57.92-.65,1.51a2.67,2.67,0,0,1-.38.45Zm1.29-.88a.28.28,0,0,1,.07.4c-.28.42-.46.6-.56.54s0,.1,0,.13c-.7.41-.15-.64.12-1.14.08,0,.41-.06.33.07M298.31,368c0-.13,0-.21.16-.25.6-.69.95-1,1-1v.47c0,.25-.3.52-.89.8Zm2.26-16.61c-.21-.44-.17-.78.12-1,.14.05.14.18,0,.36.26.09.27.29,0,.59-.05.08-.1.1-.16.06M284.89,307.5c.21-.67.37-1,.48-1a.23.23,0,0,1-.16.28,1.26,1.26,0,0,1-.11,1,.24.24,0,0,1-.21-.3M256,294.71a2.55,2.55,0,0,0-.25.72c-.23,0-.78-.16-.13-.37q0-.69-.84-.84l-.15.07.06.15c-.29-.06-.36-.29-.26-.6l.08-.14a.78.78,0,0,1,.35.16l.52-.05a1.7,1.7,0,0,1,.62.9m-.6-1.48a.92.92,0,0,1-.31.5c-.24-.12-.36-.25-.35-.38.2-.14.3-.23.3-.28a.67.67,0,0,1,.36.16m-1.55,2.19-.09.36V296a1,1,0,0,1-.47-1h.08a1,1,0,0,0,.49.38m-.11-.88v.22l-.5-.09-.15.07-.13-.37c.06,0,.11-.1.16-.29a.76.76,0,0,1,.63.46m-2.18,6.91a.67.67,0,0,1,.13.44.6.6,0,0,0-.31.43h-.29a.55.55,0,0,1,.08-.29l-.05-.51c.11-.34.22-.51.31-.5s.23.16.21.3Zm-5.09,19c0,.1,0,.14-.15.14a.66.66,0,0,0-.06-.22l.08-.14a.18.18,0,0,1,.13.22m2.18,22.72-.15-.08a1.23,1.23,0,0,1,.26-.54c.25.17.22.38-.11.62m93.21,30.94v-.07c0-.09.05-.13.15-.14a.19.19,0,0,1-.15.21m2.61-1.42v-.15a.42.42,0,0,1,.52-.27v.08c0,.14-.22.25-.52.34m2.2-2.1a.46.46,0,0,1,.3-.42H347a1.32,1.32,0,0,1-.1.51h-.14Zm2.61,3.76a.88.88,0,0,1-.17.5c-.37,0,0-.47.17-.5m0-.73.09-.36h.14l.22.16c-.17.43-.3.64-.4.64a1.32,1.32,0,0,1,0-.44m.57-1.36a1.6,1.6,0,0,1,.39-.79c.39,0-.1.94-.18.94Zm1.06-1.13a.15.15,0,0,1,.15-.14l.15.08-.09.44a.28.28,0,0,1-.21-.38m0,.81v-.08h.14V372Zm1.1-3.67c.07-.54.18-.8.33-.79h.14l0,.66c-.15,0-.23.06-.24.28Zm.41-1.15a.68.68,0,0,0-.19-.59v-.08l.47-.71a5.67,5.67,0,0,1-.05-.58c.12-.27.29-.39.53-.34.21.39.4.6.55.6v.15h-.07c-.31.43-.61.64-.91.62v.37l-.08.14a.55.55,0,0,1,.29.08c-.11.22-.21.34-.31.36Zm.3,1.69a2.1,2.1,0,0,1,.62-1A1.32,1.32,0,0,1,354,367h.07a1.37,1.37,0,0,1-.47,1c0,.14.08.27.27.37,0,.48-.24.66-.6.56,0-.15,0-.22-.14-.22l-.23.13Zm.93-4.85c-.07.24-.15.36-.23.36l-.15-.08.24-.36Zm.65,3.67v-.14h.15v.15Zm.09-.5.16-.22.28.09c0,.16-.41.52-.44.13m.2,2.26,0-.51h.15v.15h.29a.47.47,0,0,1,.31-.43h.15a1.3,1.3,0,0,0-.17.43c-.29.07-.44.19-.45.35Zm.2,5.62.46,1.33.15-.06-.21-.37v-.22h.22c0,.23.11.41.42.52a2,2,0,0,1-.25.72h-.15v-.15a1,1,0,0,1-.93-.55l-.37.28h-.15a.79.79,0,0,0-.12-.44,1.11,1.11,0,0,1,.16-.5l-.13-.3.08-.14.29.08c.24,0,.39-.06.44-.2Zm.06-8.3.08-.15c0-.08-.05-.13-.14-.15l.07-.14a.55.55,0,0,1,.29.09c.49-.51,1-1,1.52-1.47.2-.46.42-.55.67-.27-.29.82-.62,1.22-1,1.2-.36.49-.81,1.48-1.49.89m1.29-15.25a1.34,1.34,0,0,1-.44-.1v-.14q.28,0,.3-.21a.34.34,0,0,1,.13.45m-.48,7.85a1.07,1.07,0,0,1-.09.43h-.07l-.14-.08a.88.88,0,0,0,.16-.36Zm-.33,2.75a.74.74,0,0,1-.39.64v-.07a1.85,1.85,0,0,1,.25-.57Zm10.15-19.76h.15v.22c-.12-.05-.16-.13-.14-.22m1.29,4.06c.08-.14.15-.21.23-.21h.07v.22Zm.8.1a.41.41,0,0,1,.3-.28.64.64,0,0,0,.21.09l-.23.35ZM351.07,350v.08c0,.35-.29,0-.29-.16Zm7.68-16.37c.35-.21.52-.35.52-.41a3.31,3.31,0,0,0,1-.55v-.14c-.42.28-.74.27-.95,0a.72.72,0,0,1,.67-.34V332q-.21,0-.21-.15a.43.43,0,0,1,.19-.19,5,5,0,0,1,1.54,1.15c-.24.07-.37.13-.39.19a4,4,0,0,0-1,.25c-.1,0-.15.11-.16.36a2.73,2.73,0,0,0-.89.25Zm.7.54c0-.16.33-.36,1-.61h.14v.29a1.69,1.69,0,0,1-1.11.32m1.83-11.78c-.56-.43-.84-.68-.84-.76a7.19,7.19,0,0,1-1.11-1.29.06.06,0,0,0,.07-.07c.24,0,.39.11.43.31.54.15,2.26,1.67,2.23,2.42.33,0,.75.38,1.27,1.08v.07A2.47,2.47,0,0,1,362,323.1c-.47-.22-.71-.45-.7-.68m2,4.82a.22.22,0,0,1,.28.16v.07h-.07c-.14-.08-.21-.16-.21-.23m1,.55h.14c.21.08.3.2.28.37h-.15c-.21-.09-.3-.21-.27-.38m2.72,6.38a.85.85,0,0,0-.27-.59l.08-.15a.81.81,0,0,1,.43.17l.3-.14c.36,0,.52.16.49.39l-.51,0a.64.64,0,0,1-.37.2c0,.1.24.21.72.32a11.36,11.36,0,0,0,1.57.72c.17.3.6.47,1.29.49v.08c0,.09-.15.19-.38.27a5.45,5.45,0,0,1-3-1.51c-.19.12-.3.21-.3.28a.55.55,0,0,0-.29-.08c0-.24.09-.39.24-.43m.33.74.08-.14c.15.15.27.23.36.23v.15h-.36a.56.56,0,0,0-.07-.23m.57.39c.1,0,.17,0,.21.16H368c-.08,0-.13-.05-.14-.15m-.13-7.44v-.14a3.74,3.74,0,0,1,1,.53h0a.83.83,0,0,0,.18.63.23.23,0,0,0-.11,0c-.14-.25-.28-.37-.42-.38a3.35,3.35,0,0,0-.63-.61m1.42,1.94a1.79,1.79,0,0,1-.13-.22.74.74,0,0,1,.38.32V330l-.08.14-.22-.2ZM376,297.3a.4.4,0,0,0-.43-.31c0-.35-.17-.55-.56-.6a.34.34,0,0,1-.3.35h-.08a.83.83,0,0,0-.4-.82H374l-.22.14-.14-.08.08-.15v-.29a.5.5,0,0,1-.29-.15l-.36,0c0,.16-.11.23-.23.21l-.14-.08v.07c-.81,0-1.22.13-1.26.32a4,4,0,0,0-1,.46q-.1-.18-.36-.09c0,.3-.46.59-1.35.9v-.22a1.68,1.68,0,0,0,1.05-.76c.55-.35.83-.56.83-.62A4.41,4.41,0,0,0,372,295v-.22h-.07l-.23.13h-.07v-.15c-.53,0-.8.09-.81.34-.54.12-.82.3-.83.54a.36.36,0,0,1-.12-.58.5.5,0,0,0-.52.27,1.48,1.48,0,0,0-1,.32.32.32,0,0,0-.38.35l-.36-.09c-.2.11-.3.2-.3.28a1.78,1.78,0,0,0-1.26.46c-.6-.09-.9,0-.89.4.33.09.5.2.49.31l-.08.14c-1.46.74-2.23,1.15-2.3,1.22q-1.11.16-1.11.39a5.19,5.19,0,0,0-1.34.6,5.66,5.66,0,0,0-1.47.3h-.15l-.35-.24a1.81,1.81,0,0,0-.88.18c-.09,0-.16-.12-.21-.37a2.36,2.36,0,0,0,.52-1.8.89.89,0,0,0,.24-.65l-.07-.14c.14,0,.25-.36.34-1.08a2.68,2.68,0,0,1-.05-.66,1.91,1.91,0,0,1-.39-1.11l.23-.14a4.91,4.91,0,0,0-.33-.88c0-.45-.07-.72-.26-.82.08-.14.16-.21.23-.21a9.19,9.19,0,0,1,.41-1.15,2.2,2.2,0,0,1,0-.65,1,1,0,0,1-.25-1.18h-.22c-.16-.49-.34-.74-.55-.75l0-.36-.21-.3q-.15,0-.15.21h-.29a.59.59,0,0,1,.08-.22.21.21,0,0,0-.21-.23c-.21-1.3-1.11-1.11-2.18-1.91-.54.11-.81.22-.82.33-.6.43-.9.71-.91.84-.19-.13-.28-.23-.28-.3l-.29.06a1.3,1.3,0,0,0,.26.88l-.37-.09q-.15.21-.3.21l-1,.54h-.14l.16-.36h-.15c-.29.15-.32.36-.1.65l-.08.37a1.73,1.73,0,0,0-.92.9,4.35,4.35,0,0,1-1,1.13l-.36-.09a.85.85,0,0,0-.46.64,1.17,1.17,0,0,0-.63,1,.86.86,0,0,1,.22.08.84.84,0,0,1-.09.44l.06.15v.07c-.23,0-.35-.16-.34-.52-.35-.06-.57.15-.69.62.05,0,.1.08.14.23s-.15.21-.23.21l.06.51c-.47.48-1.25,1.1-1.32,1.84l.06.29c-.1,0-.15.07-.15.22h-.08v-.14c-.25-.08-.4,0-.45.34.29.08.43.15.43.24q-.37.22-.39.42a.85.85,0,0,0-.45.42c0,.1,0,.15.14.15l-.08.14a.59.59,0,0,1-.22-.08c0,.24-.18.45-.53.63a3.19,3.19,0,0,1-.58,1.73,2.15,2.15,0,0,1,.24-.64.05.05,0,0,1-.06-.06l-.44.2c-.21-.12-.32-.23-.31-.34s-.23.07-.28.26l-.22-.06c0-.22.09-.32.23-.32a1.13,1.13,0,0,1,.1-1,10.11,10.11,0,0,0-1.55-2c-.22.12-.33.22-.34.31H340a.78.78,0,0,0-.42-.34c0-.33-.06-.49-.2-.5l.06-.11v-.16h-.27a.34.34,0,0,0-.26-.17c-.2-.27-.36-.4-.47-.4v-.17c.51.11.76.21.75.31a.37.37,0,0,1,.17,0v-.06a1,1,0,0,1-.61-1.05.85.85,0,0,1,.43.18c0-.25-.09-.39-.31-.39,0-.07,0-.1.11-.11a1,1,0,0,0-.42-.4.54.54,0,0,0-.22.05.37.37,0,0,0-.21-.06l0-.38-.64-.46c-.08.16-.15.24-.22.26h-.11c-.2,0-.28-.14-.26-.28l.06-.1c.16.11.28.1.38,0-.55-.58-2.08-1.12-2.59-1.85h-.05v.22h-.22c-.19-.15-.31-.23-.37-.23a1,1,0,0,1-.6.08v.16a.48.48,0,0,1,.21.07v.05s-.05,0-.05-.06a.69.69,0,0,1-.65-.08v.06c-.26,0-.38-.09-.37-.24a.65.65,0,0,0-.33.1.7.7,0,0,1-.38-.18h-.05l-.17.1.05.11-.06.11a1,1,0,0,1-.48-.19.54.54,0,0,1,.34-.25.43.43,0,0,1-.1-.23,2.19,2.19,0,0,1-.85-.36v-.21l.06-.11a1.12,1.12,0,0,0-.48-.07c0-.18-.1-.28-.32-.29,0-.11.07-.18.23-.21a.68.68,0,0,0,.43.13c.35-.05.52-.21.51-.47l-.11-.16c-.14,0-.22.1-.22.15s-.21-.12-.21-.17a.51.51,0,0,0-.27,0c-.4-.05-.59-.11-.59-.19l-.11.05h-.06l.06-.11v-.05c-.3-.1-.46-.2-.47-.29l-.33,0c-.14-.06-.21-.12-.21-.17l-.65.08a.4.4,0,0,0-.16-.06l-.23.1a.6.6,0,0,1-.31-.18.93.93,0,0,0-.33,0,.54.54,0,0,1-.05-.16l-.27,0a.76.76,0,0,0-.48-.18q-.45.54-.93.12a3.36,3.36,0,0,1-1.21.39l-.32-.18-.11.05a1.82,1.82,0,0,1-1.16.5l-.22-.07v.06c-1.58.48-3.53.63-4.9,1.69a3.33,3.33,0,0,0-1.17.71c.08.15.15.23.21.23,0,.18-.09.27-.23.26a.88.88,0,0,1-.77.35s0-.05-.06-.06-.14.11-.22.27a6.41,6.41,0,0,0-1.61.74c-.37.42-.6.63-.68.63.06-.19,0-.3-.25-.34s-.24.09-.23.21a.58.58,0,0,0,.17,0h.05v.06l-.23.26v.05h.21v.17c-1,1.18-.38,1.11-.4,1.77,0,0,.53-.12,1.48-.37a.58.58,0,0,1-.13.37c-.29,0-.43.07-.44.15-.58.1-.87.23-.88.39a.94.94,0,0,0-.78.51,1.56,1.56,0,0,1-.59-.24.34.34,0,0,0-.23.27,1.4,1.4,0,0,0-.77.29c.12.22.06.36-.18.43l-.16-.12c-.87.84-1.3,1.37-1.31,1.57-.44.12-.56.31-.35.59v.05c-.18,0-.28,0-.28.1l.15.22v.11a.57.57,0,0,1-.45.31v.05l.21.28q0,.23-.18.21c.09.23.23.35.42.34q0,.22-.33.21a.74.74,0,0,0,.25.61v.1h-.27l-.22.21a.3.3,0,0,0,.42.24c0-.3,1.46,1.06,1.61.33a.7.7,0,0,0,.33.07.42.42,0,0,0,.3.5v.06l-.12.15a2.8,2.8,0,0,0,0,.71c-.12.11-.21.16-.28.15v.17l.16-.05c.16-.25.33-.37.5-.36a1,1,0,0,0,.36.61,1.43,1.43,0,0,0,.72-.35c.07,0,.13,0,.16.12a1.26,1.26,0,0,1,.43,0l.11.06c0-.05.07-.08.22-.1s.36.09.44-.09h-.06a.46.46,0,0,1,.29-.43h.06v.05l-.05.11a.52.52,0,0,0,.44-.2c.18,0,.29.06.32.17a.3.3,0,0,1,.16,0,1.09,1.09,0,0,1,0-.44h0l.21.17h.05a.59.59,0,0,0,.35-.53H314l-.16.11h-.06l.51-.52.49,0a.56.56,0,0,1-.18.37v.06a.29.29,0,0,0,.34-.31.35.35,0,0,0,.49-.09l-.15-.33h-.16a.45.45,0,0,1,.12-.32,3.12,3.12,0,0,0,1-.72,2.46,2.46,0,0,0,.77-.4,1,1,0,0,1-.41.74h-.11c-.1-.06-.15-.12-.15-.17a2.75,2.75,0,0,0-.73.57v.05l.54,0c.22-.12.33-.2.34-.26.47-.18.72-.35.72-.51a1.14,1.14,0,0,0,.51-.36c0-.37.13-.53.4-.47v.16a.53.53,0,0,0,.5-.3c.4-.12.61-.26.61-.41.26-.09.39-.17.39-.26a.21.21,0,0,1,.1.28l-.17.21a2.23,2.23,0,0,1-.2.91l0,.49a4.23,4.23,0,0,0-.41.8l.41.45q0,.1-.33.15v0l.15.23a.48.48,0,0,1-.21-.07l-.17.11h-.05a1.16,1.16,0,0,0,.07-.37h-.06c-.43.33-.59.58-.48,1.07q.3,0,.36.45a2,2,0,0,0-.13.59,2,2,0,0,0-.62.68l0,.33a18.18,18.18,0,0,1-.91,2.13v.11a.32.32,0,0,0,.16,0c.15.08.14.15,0,.22l-.2-.17a.36.36,0,0,0-.24.37h.06l.16-.1h.22c0,.12,0,.19-.17.21l.1.22a.66.66,0,0,0-.08.65l-.24.53.05.11q-.27.75-.36.75a4,4,0,0,1-.66,1.49c-.29.12-.44.23-.44.31l-.57.62,0,.33h.06c.18-.1.28-.2.28-.31h.16a5.82,5.82,0,0,1-.37,1.07c-.05.33-.12.49-.18.49a.54.54,0,0,0,0,.16,2.93,2.93,0,0,1-.19.59l-.26-.23h-.16l-.11,0c0-.07-.35-.32-1.06-.74v-.14h-.24v.1l-.34-.07c.06-.14.13-.28.2-.41l-.07-.26c0-.05.11-.2.33-.43h-.07a3.31,3.31,0,0,1,.69-1.5c.67.14.86-.17,1.37-.77l-.15-.19a1.69,1.69,0,0,1-.5-1.29h-.15c0,.13-.06.19-.17.18a2.86,2.86,0,0,0-.14-.51c.27-.18.41-.3.41-.36a1.64,1.64,0,0,1-.29-.52h-.16l-.24.12a3.68,3.68,0,0,1-.3,1.44H313a.43.43,0,0,0-.07-.25c.12-.06.15-.16.09-.32-.08,0-.26-.13-.53-.4l-.33.18-.15-.07a1,1,0,0,1,.25-.44l-.05-.57c.48-.2.74-.7.77-1.49a.65.65,0,0,0,.27-.75h-.16v.13l-.47,0c.17.29.11.45-.18.5a1.36,1.36,0,0,1-.36,1.13c-.17,0-.42-.23-.76-.67-.42,0-.57.31-.44,1.06h.24l0-.7h.23a.59.59,0,0,1-.09.32c.16.37.23.59-.11.69-.44-.28-.87-.58-1.3-.88v-.06c.43-.74,1-1.25.32-2,0-.17-.34-.35-.92-.55-.14,0-.22.08-.25.25h-.16c-.05-.19-.15-.28-.3-.26l0,.38h-.16V305c.1.08.17.36.2.83l-.16.06c-.1,0-.15-.07-.15-.2H308c-.07.53-.11.8-.11.82h-.16a2.69,2.69,0,0,1,0-1.77,1.11,1.11,0,0,0-.36-.84,1.18,1.18,0,0,0-1-.74l-.16.05a4.24,4.24,0,0,1,.18,1.47c-.06.17-.22.25-.48.23l0,.57.08.13c-.17,0-.1.58-.05.85v0c0,.24,0,.19,0,0l-.07.1h-.16c-.24-.27-.42-.4-.53-.41a1.18,1.18,0,0,0-.62-.47c-.59.27-.32.56.21.71l-.25.24v.32a1.13,1.13,0,0,0-.24.05c0,.15-.17.31-.49.49-.28,0-.42.06-.41.24l.15.19c0,.19-.07.27-.32.24,0,.1,0,.17.15.2l-.09.32v.06l.55,0c0,.1.1.25.3.46a2.76,2.76,0,0,0-.11.69l.15.2a.38.38,0,0,1-.09.25l.15.26a.43.43,0,0,1-.09.19,4.58,4.58,0,0,0,.56,1.86.43.43,0,0,1-.09.19,10.46,10.46,0,0,1,.39,2.11.36.36,0,0,0-.09.18c.11,0,.17.31.2.9h.24l.16-.06a6,6,0,0,0-.26-1.34,4.61,4.61,0,0,0,.11-.82c.26,0,.4-.09.41-.3a.88.88,0,0,1,.45.53.58.58,0,0,1-.1.37,1.42,1.42,0,0,1,.06.58,1.65,1.65,0,0,0-.42.68.36.36,0,0,1,.06.25l.4,0a6.65,6.65,0,0,0,.5,1.35c0,.2-.18.4-.5.61,0-.42,0-.63-.21-.64a3.12,3.12,0,0,1-.1.57,1.09,1.09,0,0,0,.21.51c-.11.07-.17.37-.19.88-.49,1-.8,1.43-.93,1.43a8.23,8.23,0,0,0-1,1.92,2.42,2.42,0,0,0-.59,1.06c-.38.13-.57.25-.57.35-.33.29-.5.53-.5.74s.15.2.22.2c-.24.92-.42,1.38-.53,1.38-.42,1-.68,1.49-.77,1.49a3.5,3.5,0,0,1-.43.93c-.09,0-.17-.15-.22-.45a2.86,2.86,0,0,0-.64.16v.07l.46.27a2.83,2.83,0,0,1-1.08,1.29v.06h.16c0,.25-.07.38-.18.37l-.06-.25h-.24c-.17.33-.34.49-.49.48-.4.37-.7.55-.89.54a1.49,1.49,0,0,1-.59.86.62.62,0,0,1-.31-.08,11.76,11.76,0,0,0-1.2.34c-.51,0-.83.09-1,.34a1.15,1.15,0,0,0-.71,0,5.25,5.25,0,0,1-2.35-.54,1,1,0,0,0-.6-.6,1.91,1.91,0,0,0-.21-.77v-.06a.7.7,0,0,0,.42-.68l-.23-.33.1-.31-.08-.13L291,329a2.75,2.75,0,0,0-.05-.7c.15-.34.43-3.09.84-3.07l-.14-.52c.92-1.85,1.26-4.29,1.84-6.27l-.07-.32.17-.25-.14-.45a3.89,3.89,0,0,0,.58-.61,1.25,1.25,0,0,1,.5-.74c.37-1,.68-1.43.93-1.42l-.07-.13c-.42-.09-.62-.29-.61-.59.08-.13.17-.19.24-.19.15-.33.31-.49.5-.48.08-.38.22-.56.42-.56l-.07-.32v-.12a3.94,3.94,0,0,0,.55,0s.07.08.23.13a.72.72,0,0,0,.24-.05,3.92,3.92,0,0,0-.43-1v-.19a2.28,2.28,0,0,1,.73-.48,8.22,8.22,0,0,0,1.15-.9v-.19c-.49,0-.12-.29,0-.32,0,.21,0,.32.14.32l1-.78a1.75,1.75,0,0,1,.91-1,.84.84,0,0,1,.57-.36v-.19a.78.78,0,0,1-.31-.07.27.27,0,0,1,.32-.12v.13a.62.62,0,0,0,.72-.41c0-.1,0-.17-.15-.2l0-.51a1.61,1.61,0,0,0,.82-.85h.24l.3.2H303v-.25l-.39-.08V305l.08-.12a1.17,1.17,0,0,1,.47.15c.05,0,.08,0,.08-.06.59.08.89-.06.88-.41l-.63,0-.24.12A1.72,1.72,0,0,1,302,304l.65-.54c.48-.13.72-.25.73-.35s-.15-.26-.23-.27a.7.7,0,0,1,.18-.37l-.06-.45.08-.12c.87-.42,1.27-.8,1.17-1.6a4.51,4.51,0,0,1-.84-.74c0-.14.2-.35.58-.61,0-.26.33-.44,1-.53a2.59,2.59,0,0,1,1-.53,1.17,1.17,0,0,0,.47.15l-.07-.32c0-.08.06-.12.16-.12q0-.26-1-.87c-.15-.83-.34-1.17-1-1,0-.09-.12-.2-.38-.34.3-.08.43-.25.41-.49-.47,0-.7-.19-.68-.53h-.24q0,.12-.09.12c-.74.29-1.12.57-1.13.84a2.3,2.3,0,0,0-1,.6,6.9,6.9,0,0,0-1.52.51H300l-.24-.14a7.74,7.74,0,0,0-.91,1.23,4.48,4.48,0,0,1-.9.79c0,.34-.37.64-1.07.91-1.08-.05-7.55,5.15-7.61,6.54-1,.69-3.82,5.29-4.44,6.23s-.67,1.3-.76,1.3a18,18,0,0,1-.8,1.66,2.42,2.42,0,0,0,0-1.07c.1-.38.21-.57.32-.57.28-1,.5-1.44.64-1.43-.19-.6.1-1.05.86-1.35h.14v.29h.15a1.11,1.11,0,0,0,.39-.71.12.12,0,0,1-.06-.15,1.35,1.35,0,0,0,.39-.71c.35-.24.53-.48.54-.71a.72.72,0,0,0,.54-.71l-.21-.3a4.05,4.05,0,0,1,.64-1.28,8.37,8.37,0,0,1,.35-1.37.2.2,0,0,0-.14-.23c-.12,0-.25.19-.38.5l.06.15-.16.28.07.29c0,.15-.11.24-.31.28l-.14-.08c.1-.33.2-.5.31-.49a.66.66,0,0,0-.06-.22c.54-.57,0-1.92.75-2.38a.72.72,0,0,0-.05-.36l.17-.65-.06-.3.08-.14a.53.53,0,0,0-.07-.22,1.68,1.68,0,0,0,.09-.29l-.14-.22a.88.88,0,0,1,.16-.43.51.51,0,0,0-.06-.23,1.14,1.14,0,0,0,.18-.72l-.07-.15a9.66,9.66,0,0,1,.57-1.5.66.66,0,0,0-.06-.22,6,6,0,0,0,.52-1.95c-.05,0-.1-.08-.14-.22.12-.24.25-.36.38-.35a1.44,1.44,0,0,1-.27-.6c.13-.05.26-.31.4-.78l-.07-.15c-.7-.25-.88-.57-.54-1a2.07,2.07,0,0,0-.18-1c0-.06-.18-.16-.57-.31-.54-.56-.9-.84-1.05-.85l.15-.21c0-.1-.07-.15-.21-.16a1.16,1.16,0,0,0-.93-.47l-.22.13h-.08a.2.2,0,0,0-.21-.23l-1.35-.63h-.08c0,.37-.49.64-1.42.82,0,.68-.74.71-1.11.53a.9.9,0,0,0-.24.43.57.57,0,0,0-.58,0l.14.22c-.14.13-1.66,1.27-1.66,1.32a2.61,2.61,0,0,0-1,.47h-.07a.53.53,0,0,0-.07-.22c.35-.37.55-.56.61-.56s-.09-.15-.28-.23c.07-.33.25-.5.53-.49v-.21h-.22c0,.5-.29,0-.29-.16l.16-.21h-.22a10.55,10.55,0,0,1-1.79,1c-1.34-.06-3.13,2.47-3.79,3.41l.07.15a2.76,2.76,0,0,0-.7,1c0,.1-.13.14-.37.13a.73.73,0,0,0,.06.3c-.5.46-.76.74-.76.84a5.26,5.26,0,0,0-.65,1.65,2.41,2.41,0,0,0-.63,1c.28.23.29.4,0,.51a.66.66,0,0,0-.06-.22q-.13,0-.54.63c-.11.44-.24.65-.39.64l.06.37h-.22V302l.14.22.37-.06-.07-.14v-.08c.15,0,.22,0,.23-.13l.21.15-1,2.14h-.07a2.17,2.17,0,0,1,.18-.79c-.05,0-.07,0-.07-.08.3-.17.45-.28.45-.34l-.07-.15c-.18,0-.33.2-.45.49-.15-.08-.22-.16-.21-.23a.68.68,0,0,0-.6.34c-.1.34-.2.5-.31.5a3.61,3.61,0,0,1-.63,1,1.51,1.51,0,0,1-.47.93,6.19,6.19,0,0,1-.79,1.42,2.33,2.33,0,0,1-.94,1.57l-.14-.08h-.15c0,.15,0,.22-.08.22-.58.78-.93.79-1,0l.08-.29a.79.79,0,0,0-.12-.44.82.82,0,0,1,.16-.43,1.69,1.69,0,0,1,0-1c-.22-.2-.18-.46.11-.8a1.44,1.44,0,0,1,0-.94l-.07-.15a11,11,0,0,0,0-3.57l.08-.14c-.18,0,.15-2.84-.52-3.23.06-1.55-2-3.52-2.95-4.5a.53.53,0,0,0-.22.07,12.64,12.64,0,0,0-1.75-1.75l-.29.06a1.48,1.48,0,0,1-.71-.4.33.33,0,0,1-.44.06c0-.21-.4-.39-1.22-.56a1.07,1.07,0,0,0-.09.43,1.87,1.87,0,0,0,.7.76l.33.74c-.13,0-.21.11-.23.36H256a2.37,2.37,0,0,1-.61-1.05.16.16,0,0,0,.08-.21,1.55,1.55,0,0,0-1.07-.7c0-.36-.24-.61-.77-.76,0,.09,0,.14-.15.13,0,.25.15.42.49.53v.08l-.08.14-.14-.08h-.37a1.36,1.36,0,0,1-.66.11c0-.36-.34-.45-.64-.39l-.15.07.07.15-.08.14a.51.51,0,0,1-.21-.08l-.45.13a.14.14,0,0,0,.14.15.51.51,0,0,1-.08.21,3.05,3.05,0,0,1,.05.52.45.45,0,0,0-.53.48,3.64,3.64,0,0,0-1.18.32,6.22,6.22,0,0,0,0,.8,1.11,1.11,0,0,0-.26,1.09h-.07c-.13.37-.42,1-.89,2a3.26,3.26,0,0,1-.88,1.85l.07.15a2.4,2.4,0,0,0-.4.86c-2.71,8.11-6.05,15.68-7.06,24.27a28.84,28.84,0,0,0,.08,3.43s-.07,0-.08.07c.08.34.14.51.2.52a3.38,3.38,0,0,0,.59,1.7,1.33,1.33,0,0,1,.74-.41l-.05-.51a8.12,8.12,0,0,1-.32-1.11.22.22,0,0,0,.16-.28h-.22a1.9,1.9,0,0,0-.11-.81.51.51,0,0,1,.08-.21c.11,0,.2.22.26.66l-.07.15a.68.68,0,0,1,.34.59h.14l-.17-1.17c.05,0,.08-.07.08-.22H242c-.12.65,0,1,.4,1,0-.24.06-.36.16-.36l-.06-.36.08-.15c.18,0,.36.46.53,1.34h.14c0-.09-.15-1.14.12-1.16s.28.23.28.31l.44-.13c.12-.26.05-.43-.19-.52v-.22l.29-.06a.81.81,0,0,0-.13-.44c.13-.19.23-.28.31-.28l-.06-.37h.22v-.14c-.14,0-.21-.06-.21-.16l.15-.21-.06-.15c.11,0,.29-.3.55-.92l-.36-.16a1.21,1.21,0,0,0,.09-.58c.31-.56.64-1.5.89-1.93l0,.5h-.15c0,.08,0,.8-.18.79a.65.65,0,0,0,.06.29c.05-.1.07-.13,0,0h0c-.12.26-.43,1-.11,1l.15-.06-.06-.44c.16-.53.29-.79.4-.79l.46-.71.15.08c.65-.47.72-.95.2-1.45.26-.57.42-.86.48-.85.11-.24.22-.36.3-.36a1.78,1.78,0,0,1,.49-1.14,1.91,1.91,0,0,1,.41-1.22.73.73,0,0,1-.06-.3c.08-.14.16-.21.23-.21A8.45,8.45,0,0,1,249,314a2.39,2.39,0,0,1,.89-2.07,1.58,1.58,0,0,0-.19-.59.24.24,0,0,0,.15-.29h-.14q-.12-.66-.27-.66v-.08a.47.47,0,0,0,.29-.13.74.74,0,0,0-.13-.37c.1,0,.15,0,.16-.14l.36.09c.12,0,.25-.18.38-.49a2.07,2.07,0,0,1-.17-1.25,1.65,1.65,0,0,0,.79-1.43,1,1,0,0,0-.43-.23,13.25,13.25,0,0,1,.66-1.87,2.23,2.23,0,0,1,.42-1.29l.15.07c.32,0,.24-1.23.2-1.44l.15-.07-.2-.37.16-.36c.48,0,.69.9.62,2.65a13.73,13.73,0,0,1,.35,1.91c-.44.36-.48.63-.1.8,0,1.06.08,1.6.22,1.61l-.08.29a3.11,3.11,0,0,0,.11.8.86.86,0,0,0,.32,1.11c0,.05,0,.07-.08.07.06.58.11,1.8.14,3.65a.49.49,0,0,0,0,.51,4.2,4.2,0,0,0-.08,2c-.1,0-.15.12-.16.36a.41.41,0,0,1,.28.23c.53,0,.18,2,0,2.19.29.27.18.6-.33,1,0,.31,0,.8,0,1.46a.55.55,0,0,1,.29.08.59.59,0,0,1-.08.22.56.56,0,0,0,.06.29,2.18,2.18,0,0,0-.05,1.16l-.31,3.93c.33,2,.14,4,.48,6.07l-.08.14.18.34a1.35,1.35,0,0,1-1.58.44,6,6,0,0,0-1.52.64c-.61.2-.93.42-1,.67a19.91,19.91,0,0,1-1.86,1.26l-.39,0v.24c-.37.05-.56.14-.56.29-.82.59-1.22,1-1.23,1.13-1,0-2.4,2-3,2.7v.08a.68.68,0,0,1,.85.35c0,.16-.11.28-.33.38l.08.16,0,.31c-.14.21-.24.31-.32.3,0,.4-.38.75-1.07,1.06a4.46,4.46,0,0,1,.05.63l-.25.31a.82.82,0,0,1,.22.48.68.68,0,0,0,.32-.07c.61.28.91.44.87-.28-.3,0-.47-.2-.52-.65q.31,0,.33-.45a.76.76,0,0,0,.47.17l0,.47.39,0,.23.17a1.5,1.5,0,0,1-.33.45v.24l.07.16a1.84,1.84,0,0,1,.63-.13v-.24h-.39V345a.62.62,0,0,0,.31-.07c0-.85.88-1.38,1.52-.56a7.32,7.32,0,0,0,1.12-.51c0-.13.38-.43,1.06-.9.48.23.46.57,0,1-.05.31-.14.46-.25.46-1,1.5-2,2.89-1.27,3.95a6.09,6.09,0,0,1-1.13,2.71v.23l.07.16.32-.06h.07l-.6,1.31a1.22,1.22,0,0,1-.46,1.64l-.32,0-.22-.16c-.33.35-.55.52-.65.52a10.38,10.38,0,0,0-1.38,2.77,6.08,6.08,0,0,1-.54,1.79c-.33,1.24-.57,1.86-.71,1.86a13.49,13.49,0,0,1-.63,1.86l.06.39a11.19,11.19,0,0,0-.55,1.95.57.57,0,0,1,.31.17,2.93,2.93,0,0,0-.44,1.08,1.5,1.5,0,0,1,.05.63,14.93,14.93,0,0,1-1.12,2.47l-.15-.09a1.21,1.21,0,0,0,0-.86q-.27.09-.6,1.23l.07.16a14.64,14.64,0,0,1-.49,2.34.64.64,0,0,0,.07.24c.12,0,.21-.23.27-.7H238a2.64,2.64,0,0,1-.7,1.78c-.13,0-.21-.07-.23-.25l-.16.08a23.68,23.68,0,0,1-.78,3.74c.08,0,.15.11.22.32-.77.42-.84,1.87-.74,2.64l-.08.16q.08,0,.15.24a2.43,2.43,0,0,0-.31,1.64l-.17.31a1.3,1.3,0,0,1,.14.47h.16a6.1,6.1,0,0,1,.1-.63l-.06-.47.24-.15a1.15,1.15,0,0,0-.13-.47,1.07,1.07,0,0,0,.09-.24l.31,0a.73.73,0,0,0,.06.39c.16-.07.24-.15.25-.22a3.8,3.8,0,0,0,1.35,1.55l.55,0a.83.83,0,0,1,.42-.77l-.05-.55c1.19-.83,1.5-.72,1.93.71a.94.94,0,0,1,.37.64H241a1.34,1.34,0,0,0,.68-1.3H242l.06.55h.24a.83.83,0,0,1,.72-.36c.18-.52.34-.77.5-.77.13-.52.35-.77.66-.76q0-.19-.3-.24V380c.11,0,.24-.1.41-.3l.93.35a1.12,1.12,0,0,0,.55-.13c.47.14,4.07.53,4.1-.07l2-.46c2-1,4.61-.57,6.3-2.1v-.08c-.67-.28-1-.55-1-.83a1.62,1.62,0,0,1-.77-.19c.3-.62,1.51,0,2-.54a4.93,4.93,0,0,0,1.37-.81,4.37,4.37,0,0,0,1.29-.58l-.08-.16a5.6,5.6,0,0,0-1.52.73.26.26,0,0,1-.31-.17c-.58.05-.87.17-.88.35h-.39l-.32.14.07.16c0,.08-.19.18-.56.29a.23.23,0,0,0-.31-.09c-.91.23-1.43.62-1.41-.22h.16l.15.09c0-.06.11-.13.33-.23l-.07-.16a.71.71,0,0,1-.86-.19v-.08a2.77,2.77,0,0,1,1.52-.64,7.69,7.69,0,0,0,2.26-1.25.66.66,0,0,1-.24-.08,8,8,0,0,1-2.46.6c.07-.05,1.93-1,1.93-1s-.08,0-.07-.08-.16,0-.17.07a9.9,9.9,0,0,0-1.9.39c-2.26.12-3.91.23-5,.35l-.15-.09.57-.45v-.07a2.25,2.25,0,0,0-1.1.11s-.05-.08-.16-.09v-.23c.32,0,.48-.11.48-.22s-.22-.32-.3-.33a7.2,7.2,0,0,1,.62-1.54c1.36.05,2-5.25,2-6l-.07-.16c.13-.31.22-.46.26-.46.15-1.2.31-1.8.46-1.79.16-.52.35-.77.59-.76a2,2,0,0,1,1.12-.51v-.15l-1,0-.15-.08c.5-1,2-1.42,3.2-1.36a1.35,1.35,0,0,1,1.12-.51,2.71,2.71,0,0,1,1.35-.41c.06-.36.77-.59,2.16-.7l-.08-.16V357l1.41.06V357c-.57-.12-.7-.28-.37-.49l1.17.29a.94.94,0,0,1,.63-.13,8.62,8.62,0,0,0,1.16.52c0-.27-.06-.4-.22-.41,0-.34.21-.49.73-.44l.15.09a.94.94,0,0,0,.44.8q.78.25.84.51v.08h-.24v.08c.19.27.31.4.38.4s-.06.16-.17.16l-.77-.27H267v.16a2.51,2.51,0,0,0,.68.81c.09,0,.26.25.52.73l.32-.3h.16q.08.18.51,1l-.09.39a.55.55,0,0,0,.3.17v.16l-.09.15c.05,0,.08,0,.08.09.6.06.67.47.43,1a1.52,1.52,0,0,1-.47-.1c-.08.83-.2,1.25-.37,1.24l0,.63a1.83,1.83,0,0,0-.44.92,10.22,10.22,0,0,1-2,2.2,5.22,5.22,0,0,1-.51.92v.08c.16,0,.24.06.23.17-.44.51-.74.76-.89.75-.41.87-.82,1.3-1.24,1.28a1.2,1.2,0,0,1-.25.54,4.12,4.12,0,0,0-1,1.06l.15.25-.09.15c.21,0,.2.4,0,.39l.07.4a.52.52,0,0,0-.09.23c-.82.65-1.22,1-1.23,1.13H262a1.49,1.49,0,0,1,1.29-.81,5.14,5.14,0,0,0-.06-.55l.25-.39c.48-.22.73-.37.73-.44a2.21,2.21,0,0,0,1-.66,6.91,6.91,0,0,0,2.25-1.17h.24l.15.09a1.67,1.67,0,0,1,.33-.38.54.54,0,0,1,.31.09l.16-.07a1.66,1.66,0,0,1,.88-.44,1.05,1.05,0,0,1,.67-.92h.08c0,.26.17.4.53.41a.31.31,0,0,1,.4-.14.54.54,0,0,1-.09.31l.07.16a2.08,2.08,0,0,0-.72.29c-.09,0-.14-.06-.15-.17-.26,0-.39.07-.4.22-.37.05-.56.15-.56.3-.74.19-1.12.38-1.13.58-.49.13-.74.39-.74.75a.88.88,0,0,0,.89-.59h.08a.93.93,0,0,1-.18.55v.08h.08c.42-.51.7-.76.81-.75s.1.16.31.17l0,.47h.16l.16-.07-.07-.16v-.16h.08c.16.08.23.16.23.24.21-.07.32-.14.32-.22.32,0,.59-.32.83-1a4.25,4.25,0,0,0,.86-1.29,2.15,2.15,0,0,0,.18.61,6.49,6.49,0,0,1-.05,1.4c.06.17.11.26.16.26a7.09,7.09,0,0,0,.53,1.63,6.32,6.32,0,0,0,1.37,2.27.42.42,0,0,1,.58.07c.36.27.54.45.54.56.54.68.9,1,1.08,1a3.68,3.68,0,0,0,1.58,1,.69.69,0,0,0,.21-.06.89.89,0,0,1-.18-.58,1.07,1.07,0,0,1,.65.12c-.39-.14,4.33,1.23,4.29.48l-.44,0c0-.1-.13-.2-.37-.3s-.44-.09-.45-.14l-.35.08h-.79a2.89,2.89,0,0,0-1.1-.2l.13-.22c-.68-.17-1-.38-1-.64a.85.85,0,0,1,.8.06c.58,0,.87.1.88.21a6.11,6.11,0,0,1,1.45.18,3.86,3.86,0,0,0,.78-.26,1.14,1.14,0,0,1,.59.33l.43-.08.59.23c.19-.13.34-.1.44.08a6,6,0,0,0,2.17-1h.14l.15,0a.43.43,0,0,0-.06.17,2.92,2.92,0,0,0-1.11.6c.25.39.47.49.66.28a4.36,4.36,0,0,0,.84-.37c0-.41.13-.62.4-.62l.14.05.07-.11.63-.31c.24,0,.38,0,.44.13a1.42,1.42,0,0,0,.77-.37.73.73,0,0,0,.58-.39,12.29,12.29,0,0,0,2.51-1c.44-.41.73-.61.88-.61a2.84,2.84,0,0,1,1.52-.82,3.92,3.92,0,0,1,1.12-1.21,2.5,2.5,0,0,1,.73-1.45,2.77,2.77,0,0,1,1.61-1.83c1-.28,1.87-2.48,2.73-2.5a7.69,7.69,0,0,0,1.21-1.7l-.08-.29h.08a11,11,0,0,1,2.09-3.26c.06-.4.14-.6.25-.6l-.08-.3.32-.07q-.13-.36.24-.42.11-.42.24-.42a3.69,3.69,0,0,1,.17-.53.07.07,0,0,0,.06,0,.66.66,0,0,1,.28,0,.59.59,0,0,0,.42.19v.33c-.81,1-1.3,4-1.63,5.19l0,.27c-.06.13-.11.19-.16.19,0,1.57-.45,5.79-1.24,7a.69.69,0,0,0,.06.33l-.13,1.51c-.6,0-.41,2.91-.26,2.92a.56.56,0,0,1-.07.19q.18.57.54.33c0-.17,0-.34-.05-.52a.55.55,0,0,0,.33-.2c.23,0,.36.17.37.54l.31-.13v-.73a.51.51,0,0,1,.28.15c.11,0,.16-.07.16-.21h.05l.11.07a2,2,0,0,1,1.23-.38l.43.34.05-.12v-.35a2.44,2.44,0,0,1-.48-.33v-.07c.44-.67.6-1,1.37-.82.4-.58.81-1.15,1.24-1.71a.83.83,0,0,0,.55-.25,2.1,2.1,0,0,1,.37-.72c.35-.88.64-1.32.89-1.32,0,.07-.06.41-.18,1h.1c.29-.57.47-.85.56-.85v-.33q.13-.39.21-.39a3.48,3.48,0,0,1,.5-1.31c.12-.52.21-.79.28-.79,0-.35.1-.53.17-.53A1.07,1.07,0,0,1,313,366a1.44,1.44,0,0,1,0-.46,2.34,2.34,0,0,0,.44-1.26,1.24,1.24,0,0,0,.75.15v-.07l-.16-.26h.12c.14.08.2.14.2.19.43.2.64.34.64.4.35.13.53.26.52.41.4.07.6.19.6.34a.66.66,0,0,1,.58.33l.11-.06c.13-.05.22,0,.26.14a3.33,3.33,0,0,1,1.22.67c.48.09.74.19.8.29-.48-.17,2.51,1.09,1.8,1.08.36.68.93.75,1.81.94a5.08,5.08,0,0,1,1.63,1.43l-.06.32.64.13.21-.05a2.45,2.45,0,0,1,1.06.47c0,.21.18.43.54.68.06,0,.1-.07.1-.21a.3.3,0,0,1,.32.22h-.16v.13a2.32,2.32,0,0,0,.79.61l.11-.07a.58.58,0,0,1-.06-.2c-.35-.18-.52-.32-.52-.41.78.18,1.58,1.29,2.32,1.62h.12l.32-.07c.08,0,.24.14.47.41l.12-.07-.06-.12H331l.27-.06c0,.09.07.14.22.14.1.17.21.26.31.26a1.91,1.91,0,0,0,.91.48v.07h-.44a1.37,1.37,0,0,1-.05.19,2,2,0,0,1,.26.4l-.39.06v.12l1.23.36a1.36,1.36,0,0,0,.17-.67h.06c.1,0,.58.3.72,0a2.51,2.51,0,0,1,.4.51.69.69,0,0,1,.64.39v.14c-.6-.17-.9-.08-.89.26l.15-.07a.74.74,0,0,1,.64.39l.37,0a.84.84,0,0,1,.81-.41l.28.31.3-.21h.15a1.45,1.45,0,0,1-.31.42c0,.41.67.09.74-.19-.15,0-.22-.05-.22-.15a1.25,1.25,0,0,1,.81-.19,1.28,1.28,0,0,0,1.08.41c0-.29.29-.52.83-.69l.21.15-.08.15v.14a.16.16,0,0,0,.22-.06c.58,0,.88-.09.88-.18l-.2-.45a1.27,1.27,0,0,0-.52.2,1,1,0,0,1,.62-.78l.36.09a1.44,1.44,0,0,1,.54-.85l.44,0,.14.07v-.21c-.18-.05-.25-.15-.2-.3a5.54,5.54,0,0,0,1.1-.32l.29.08a2.19,2.19,0,0,0,.6-.34l.06.15c.25,0,.37-.09.38-.2a.59.59,0,0,1-.22-.08,1.37,1.37,0,0,1,.24-.58c.43,0,.71-.24.84-.76a.29.29,0,0,0-.21-.16c.25-.17.37-.31.38-.42H346c.16.11.56.54,0,.51V372a.7.7,0,0,0,.59-.2c0-.08.18-.2.53-.34a1.67,1.67,0,0,1,.1-.8,1.65,1.65,0,0,0,.63-1h-.07a1,1,0,0,1-.75.4c0-.05,0-.07-.07-.07l1-1.35a2.39,2.39,0,0,0,.83-.69l.37.09,0,.29a4.24,4.24,0,0,0-.57,1.43q.15.08,0,.15a2,2,0,0,1-.55,1,.51.51,0,0,0,.06.23,3.06,3.06,0,0,1-.44,1.73q.14,2,.36,2l.15-.07c.27,0,.46.13.56.46l.37,0a11.92,11.92,0,0,0-.51,1.58c-.24,0-.4-.14-.49-.46h-.14a2,2,0,0,1,.19.66.36.36,0,0,0,0,.44c-.05,0-.08,0-.08.07-.34,0-.5-.24-.48-.68h-.14l0,.43-.08.14c.14.08.29.48.46,1.19-.05,0-.07,0-.08.07l-.21-.15c-.24,0-.2.94-.19,1,.69.92,1.1,1.95-.08,2a1,1,0,0,1-.33-.89h-.14c.11-.05-.49.42-.17.43,0,.64.25.87.63.68a.55.55,0,0,0,.29.09.83.83,0,0,1,.59-.2l.21.16,0-.58a.19.19,0,0,0,.22-.21c.34.14.87.16,1-.25-.12,0-.06-.48-.05-.51.44-.12.67-.3.68-.56h.07l.15.08c0-.15.13-.27.37-.35a1.76,1.76,0,0,1,.65.25l.36,0a.35.35,0,0,0,.24-.43c-.4-.35-.61-.6-.62-.76a1.66,1.66,0,0,0,.16-.5h-.22c.06.56-.07.82-.39.79a.56.56,0,0,0-.07-.23,4.3,4.3,0,0,1,.1-.57c-.25-.35-.41-.53-.49-.53a4.82,4.82,0,0,1,.85-1.21,14.6,14.6,0,0,0,.75,1.27.73.73,0,0,1,.22-.06l0-.29-.07-.15a.88.88,0,0,0,.22-.14q-.21-.15-.18-.81c-.7-.82-.69-1.5,0-2-.07-.15-.14-.22-.21-.23.25-.6.52-1.2.8-1.78a1.67,1.67,0,0,1-.42-.24v.07l-.59.34,0,.37a.48.48,0,0,0-.22.06c0,.2,0,.33-.23.35a.38.38,0,0,1-.2-.51.86.86,0,0,0,.32-.65c-1.27.26,1.48-.33.53-.48a.67.67,0,0,1,.09-.37c.25.14.47.13.58-.12l-.06-.15c.23-.23.38-.34.45-.34.57-1,.92-1.1,1-.4a1,1,0,0,0,.66-.26l.06.29v.3a5.78,5.78,0,0,0-.66,1.79,5,5,0,0,0-.88,2c.05,0,.07,0,.07.08a.7.7,0,0,0,.45-.35c.45.38.45.74,0,1.1-.11.63-.37.93-.77.91V376l.13.22a.55.55,0,0,1-.08.29q.24.78.54.9c-.18.4-.09.69.41.82h.07a.65.65,0,0,0-.06-.29c.1-.22.21-.33.3-.35h.15l.14.08a2.75,2.75,0,0,0,.33,1l0,.36h.22c.07-.48.2-.72.39-.71l.51-1.58-.07-.15c0-.7.17-1,.62-.92a4.83,4.83,0,0,1-.19,1.08c.05,0,.07.06.07.15h.14c0-.24.07-.36.16-.36a4.47,4.47,0,0,1,.5-1.36c.45.44.37.92.36,1.69a1.7,1.7,0,0,0-.09.5c.23,0,.36-.13.39-.49-.05,0-.08,0-.07-.08a2.22,2.22,0,0,1,.9-.76c.19-.77.35-1.15.49-1.15.09-.38.19-.57.31-.57.28-.74.53-.85.74-.33h.22a.56.56,0,0,1,.39-.49c-.17-.43,0-.58.39-.72,0-.38.15-.57.32-.57.24-.76.4-1.15.48-1.14a17.08,17.08,0,0,0,.66-1.87,4,4,0,0,0,.57-1.43c.37-.63,1.49-2.16.78-3a6.31,6.31,0,0,1,.73-1.8c.21,0,.39-.29.55-.92.46-.53.7-.88.7-1.06s-.13-1,0-.95a8.88,8.88,0,0,1,.5-1.51,5.62,5.62,0,0,1,.58-1.65v-.15l-.07-.15c.1,0,.2-.13.31-.35l-.07-.15a2.83,2.83,0,0,1,.32-.71c.35,0,.68-2.52.7-2.82l.08-.14-.45-1.47.09-.36-.07-.15a1.2,1.2,0,0,0-.74.4c-.2,0-.31-.07-.36-.3.05,0,.1-.07.16-.22a.17.17,0,0,1-.07-.22c.71-.55.38-.82-.16-1.24a.49.49,0,0,1,.23-.43v-.07l-.14-.23.08-.14c.1,0,.14.06.14.15l-.08.14c.56-.17,1.21-.82,1.78-.8a3,3,0,0,1,.76-.69l-.59.12-.28-.23-.36,0c0-.15.08-.25.3-.28,0-.26-.11-.42-.49-.45v-.08q.33-.78.54-.78l0-.43a3.39,3.39,0,0,0,1.05-.62.06.06,0,0,0-.07-.07c-.15-.49-.26-.74-.34-.74a.67.67,0,0,1,.09-.22c0-.13-.55-.4-1.65-.8l-1.68.23-.14-.3a19.08,19.08,0,0,0-3.23.59v-.14h-.22c0,.37-.34.6-1,.69l-.14-.08a1.79,1.79,0,0,1-1,.32,17.23,17.23,0,0,1-2.52,1.06,1.27,1.27,0,0,0-1.27.53c-.88.14-1.32.29-1.33.46-1.22.1-1.83.3-1.84.58a3.14,3.14,0,0,0-1.63.59v-.08c-.2,0-.35.11-.45.35.24.7-.07,1.13-.93,1.27-.16.38-.38.57-.67.56V349l.06.15a.71.71,0,0,0,.37-.13h.15c-.06.14-.11.21-.16.21v.29c.41-.16.69-.09.72.32a2,2,0,0,0-1.32.24l.06.15c-.19,0-.3.25-.32.79h.22v-.15h.08v.08l-.08.14.06.29c0,.05-.07.1-.22.14a.59.59,0,0,0-.22-.08L349,351h-.07l.05.51a2.85,2.85,0,0,1-1,.39c0,.24.06.39.2.45h.15v-.14a2.66,2.66,0,0,0,1.11-.54l.5.17V352l-.3,0,.06.37-.15.21h.14l.45-.35c.23-.65.9-.31,1.47-.23.08.35.17.52.27.52-.08.2-.16.29-.23.29a4.48,4.48,0,0,1,.46,1.33h.14a1.61,1.61,0,0,1,.25-.72l.36.09.29-.06,0-.36c-.18,0-.37-.16-.56-.46h-.15l.06.37-.16.21-.28-.08a.69.69,0,0,1,.08-.37l-.13-.29a1,1,0,0,1,.24-.43l.43.09c.26-.15.45-.12.58.1l.44-.06.29.09c0,.24-.17.38-.53.41,0-.06-.14-.11-.43-.16v.22l.07.15.29-.14v.08l.66-.12a4.71,4.71,0,0,1,.9-.48.58.58,0,0,0-.07-.22,1.62,1.62,0,0,0,.4-.71.07.07,0,0,1,.07.08l.36-.06a.6.6,0,0,0,.41.6c-.06.29-.14.43-.23.43l.06.36c-.23.29-.39.42-.46.42l-.32.64c0,.15-.44.64-1.3,1.48-.3.57-.56.85-.76.84-.3.72-.58,1.07-.85,1.06-.58.68-2.37,3.4-3.2,3.37a.55.55,0,0,0-.46.56,1.53,1.53,0,0,0-.54.85c-.65.44-1,.81-1,1.13-.6.42-.9.77-.92,1.05a11.61,11.61,0,0,0-2.56,2.08,4.82,4.82,0,0,0-1.12.69,1.32,1.32,0,0,0-.94-.33l-.14.06.13.3c-.05,0-.1.07-.16.21-.19-.08-.28-.16-.28-.23-.39.08-.59.22-.6.41l-.14-.07c-.15,0-.26.06-.3.27h-.37a1.57,1.57,0,0,1-.55-.75l.09-.44c-.32-.25-.36-.52-.11-.8,0-.15,0-.22-.14-.23-.11-.73.05-1.06.48-1l-.09.36.07.15c.15,0,.23-.17.24-.43l-.34-.59c.06-.21.18-.27.37-.21l-.09.37h.08l.3-.21h.14l.14.08a4.13,4.13,0,0,1,.48-.93c.14-.77.25-1.16.34-1.15l-.05-.52.38-.49a3.69,3.69,0,0,1,.67-2.09.68.68,0,0,1-.12-.51H342c.11-.24.23-.35.38-.35v-.21a5.3,5.3,0,0,1,1-2l-.06-.36a.69.69,0,0,0,.38-.35c-.12-.29-.09-.54.17-.65v.22c.07,0,.17-.12.31-.35v-.37c.49,0,.68-.63.17-.65v-.14a.29.29,0,0,1,.37-.2v.07l-.08.14c.05,0,.07,0,.07.08a.86.86,0,0,0,.25-.72h-.29a2.36,2.36,0,0,1,.17-.65c0-.1-.07-.15-.21-.16a1.64,1.64,0,0,0-.05-.66c.25-.07.38-.21.38-.42a2.94,2.94,0,0,0,.4-.71c.56-.15.82-.46.77-.92.3,0,.6-.24.9-.76v-.07a.91.91,0,0,0-.71-.47v-.07c.05-.4.23-.57.53-.49a1.1,1.1,0,0,0-.09.51h.14l.37-.2a.48.48,0,0,0-.06-.22c0-.2.16-.31.45-.35a.23.23,0,0,0,0-.18.16.16,0,0,0,.07-.15l-.14,0c.08-.32.24-.5.46-.53a.83.83,0,0,0,.4.11c-.06-.16-.12-.24-.19-.27a.26.26,0,0,1,.11-.1,1.3,1.3,0,0,1,.62.39.57.57,0,0,1,.28,0v-.11l-.1-.17v-.11l.22.12.11,0,.21.07v-.11a.64.64,0,0,1-.15-.44.58.58,0,0,0,.17-.05l.21.06V345c0-.11-.1-.16-.15-.17a2.31,2.31,0,0,0-.34-.44,1.81,1.81,0,0,1,.31-.28,1,1,0,0,1,.91-.69v-.21c-.39,0-.59.07-.6.26l-.43,0c0-.43,1-1.7,1.52-1.68v-.22h-.22a.92.92,0,0,0,.4-.78l.36.08c.1-.19.37-.27.81-.25,0-.09,0-.14-.13-.16.3-.24.45-.43.46-.56l.14.08h.14c0-.24.27-.47.76-.69l.14.08h.15c0-.05,0-.07-.07-.07l.08-.15c.22,0,.39-.13.53-.41a.51.51,0,0,1,.28.08,1.66,1.66,0,0,1-.4.86v.15h.07l.27.52a1.16,1.16,0,0,0,1-.54.74.74,0,0,0-.13-.37,3.86,3.86,0,0,1,.48-.93l-.58,0v-.07c.25-.16.38-.33.38-.5.69-.16,1-.29,1-.39.24,0,.36.06.36.16a.67.67,0,0,0,.37-.06,3.5,3.5,0,0,0,.79.11c.27-.08.39-.22.39-.42a1.13,1.13,0,0,0-.71-.62l.08-.14v-.14l-.14-.23c0-.07.1-.14.3-.2a.53.53,0,0,1,.29.15l.3-.2a1.21,1.21,0,0,0-.13-.45l.37-.27-.13-.3c0-.08.05-.13.15-.14s.21.16.21.23.2-.14.31-.35a2.05,2.05,0,0,0,1.35-1c0,.05,0,.08.07.08q.19.54.63.54a.7.7,0,0,0-.06-.23,1.42,1.42,0,0,1,.38-.53,1.24,1.24,0,0,1,.89.46,6.85,6.85,0,0,1,1.65.51l.44-.06a22.31,22.31,0,0,0,2.79,1.36h.15l.14-.06c0-.05,0-.08-.07-.08l.08-.14a1.37,1.37,0,0,0,.43.16c-.18.28-.11.48.2.59l.37-.05.13.22a10.66,10.66,0,0,1,1.1-.1c0-.64.28-.9.76-.77a.59.59,0,0,1,.08-.22l-.27-.59h-.14c0,.25-.21.36-.6.34-.72-.21-1.25-.29-1.64-.79a1.37,1.37,0,0,1,.64.31c.1,0,.15,0,.15-.13a.45.45,0,0,1,.22.08l.15-.07a.86.86,0,0,0-.72-.25v-.14a.34.34,0,0,1-.43-.09c-.46,0-.67-.18-.64-.47a.55.55,0,0,1,.29.09c.34,0,.52-.09.52-.2l-.49-.46v-.07c.25-.17.38-.29.38-.35s-.08-.06-.11-.18a3.8,3.8,0,0,1,.4-.06l.15.11h.08v-.08l0-.07.16,0V332c.22.14.42.26.6.35v-.14l-.06-.14.11,0c-.09-.29-.23-.44-.41-.45l.07-.14a1.57,1.57,0,0,1,.86.47h.15v-.15a.39.39,0,0,1-.06-.11,2.47,2.47,0,0,0,.67.3c.38,0,.55-.14.52-.41-.1,0-.17,0-.22.13-.68-.14-1-.29-1-.48-.72-.31-1.1-.56-1.14-.77v-.08a1.31,1.31,0,0,1,1,.34c.3,0,.44-.11.45-.2a1,1,0,0,0-.49-.46c-.44-.36-.8-.63-1.09-.83V329a2.89,2.89,0,0,0-.42-.56c.56.36,1.7,1.43,2.38,1.46v-.07a3.75,3.75,0,0,0-1.2-.93c-.21-.44-.37-.67-.48-.67a6.73,6.73,0,0,0-2-1.18c-.32-.35-.51-.53-.57-.53a6.88,6.88,0,0,0-1.27-.86l-.15.07a1.8,1.8,0,0,1-1-.62c-.45,0-.67-.18-.63-.47l.15-.21a5.75,5.75,0,0,0-.82-1.2l.08-.14V323a3.39,3.39,0,0,1-.7-.75,8.44,8.44,0,0,1-1.26-1.22l-.37.06V321c-.66-.22-3.82-2.75-3.8-3.43-.55-.44-.83-.69-.84-.77a.5.5,0,0,1,.52-.27v-.14a1.43,1.43,0,0,0-.74.19c-.19-.11-.28-.23-.27-.38-.29-.19-.43-.35-.42-.46s.21-.3.37-.27l.28.23a.67.67,0,0,1,.09-.22.26.26,0,0,0-.28-.3.38.38,0,0,0-.42-.45.85.85,0,0,0,.16-.36c.21,0,.3.09.28.37.22.07.37,0,.44-.27.4-.12.6-.23.6-.34H357l-.3.21h-.07v-.15a.66.66,0,0,0,.22-.06,2.43,2.43,0,0,1,.63-1.07c0-.1.1-.14.29-.13a3.86,3.86,0,0,1,.76-.77,1.47,1.47,0,0,0,1.2-.76.67.67,0,0,1,.22.09,1.17,1.17,0,0,0,.66-.27c.1,0,.15.08.14.23a.85.85,0,0,0,.51-.13.44.44,0,0,0,.58.24,2.74,2.74,0,0,1,.6-.41q0-.15-.21-.15c-.07-.32.08-.51.46-.57.09,0,.14.11.13.3q.09,0,.39-.57V310h-.14l-.15.07c-.1-.16-.18-.09-.23.21h-.07c-.14-.07-.21-.15-.21-.22a.52.52,0,0,1,.52-.35v-.14c-.14,0-.22-.06-.21-.16.4,0,.64,0,.73-.11a3.55,3.55,0,0,1,1.07-1.27c.65-.4,1-.67,1-.83.47-.23.72-.43.75-.63a1.77,1.77,0,0,0,1-.9l-.06-.3a.44.44,0,0,0,.45-.34H368c.32-.43.55-.63.68-.63a.71.71,0,0,1,.6-.41l1.29-1.11s.69-.36,1.94-1.09c.3-.38.58-.56.82-.55a6.38,6.38,0,0,1,1.42-.81,8.16,8.16,0,0,1,1.36-1.26c.08-.38.28-.57.61-.56v-.14l-.07-.15c-.64-.25-.87-.48-.61-1.05M308,303h-.16V303a.33.33,0,0,0,.23.2c0,.44.16.66.44.65v-.13h.24c.05.17.15.24.3.2s0-.15-.06-.38a2,2,0,0,1-1-.61m2.92,2.61a.83.83,0,0,1,.18-.37c-.17,0-.28.08-.34.31v.05Zm.12.24a.5.5,0,0,1-.09.25c.05,0,.08.05.07.13h.08l.16-.06c-.06-.21-.13-.32-.22-.33m.53-1.52v.11c.15,0,.28-.11.4-.36v0q-.29-.06-.39.3m3,.18a.74.74,0,0,0-.55.2.05.05,0,0,0-.06-.06.71.71,0,0,0,.07-.32h0a4.1,4.1,0,0,1-.68.51l-.1-.06a.64.64,0,0,0,.12-.32c-.19,0-.31-.13-.36-.39s.06-.29.17-.32,0-.1-.1-.12c-1.49.68,1,2.42,1.09,1.19a.35.35,0,0,1,.16.06c.21-.07.3-.19.29-.37m-.23-1.2c.12-.05.17-.1.17-.16v-.05h-.11a.37.37,0,0,1-.12.22Zm-8.29,13a2.69,2.69,0,0,0-.18.56q.27,0,.33-.36c0-.1,0-.16-.15-.2m-61.23,8.3-.15.07a1.13,1.13,0,0,0,.13.44c.1,0,.15,0,.15-.14a.27.27,0,0,0-.13-.37m2.6-4.55a.91.91,0,0,0-.33.86h.14a3.45,3.45,0,0,0,.18-.72Zm0-.08a.32.32,0,0,0,.16-.43h-.14c0,.05,0,.07.07.07a.59.59,0,0,1-.08.22Zm.1-.65c.08,0,.19-.16.31-.49,0-.17-.08-.25-.21-.23l-.16.5v.07Zm2.72-9.43a.18.18,0,0,0-.22.13h.22ZM245,345.41c-.32,0-.68.22-.1.47H245Zm.58-.76h-.23v.23a.58.58,0,0,1,.24-.06Zm13.63,27.85-.24.14c0,.44.74-.06.24-.14m-8.39-.43a.3.3,0,0,0,.4-.14l-.4,0Zm11.93.42v-.16a.16.16,0,0,0-.17.15Zm5.53-12.12c.14.64.3,1,.48,1,.12-.7,0-1-.48-1M304.49,362l-1.21,1.64v.12h.08c.37-.35.56-.59.56-.73.48-.54.73-.88.73-1Zm56.65-26.23-.58-.17h-.07a.66.66,0,0,0,.06.22l-.08.29a1.12,1.12,0,0,0,.44-.06c0,.05,0,.08.07.08a1,1,0,0,1-.16.36l.14.07H361l.23-.14h.29a.53.53,0,0,1-.39.5,1.3,1.3,0,0,0-.43-.17l-.44.2-.29-.08-.51,0a1.39,1.39,0,0,1-.48,1c.24,0,.36,0,.37-.13a1.68,1.68,0,0,1,1.12-.68v.07l.95,0a3.23,3.23,0,0,1,.65.1c.3-.05.63-.35,1-.91l-.06-.15a.82.82,0,0,1-.75.34.79.79,0,0,0-.49-.32c-.11-.47-.33-.62-.64-.46m-.7-.76h.15v-.15h-.14Zm-.06,1.46a.74.74,0,0,1-.5-.17l.13.44h.07a.5.5,0,0,1,.29-.14Zm-.35-.31c.1,0,.15,0,.15-.14v-.07l-.06-.15c-.12,0-.17.11-.16.21Zm-3.22,2.05-.07-.14c-.24,0-.36.09-.37.2v.07a.31.31,0,0,0,.44-.13m-3.08,2.21v-.29c-.35,0-.55.05-.59.19s.57.1.58.1M351.62,342l.15.08v-.22c-.1,0-.15.05-.16.14m-.9.69H351a.37.37,0,0,1-.3.28l.07.15a.61.61,0,0,0,.46-.57l-.51,0ZM349.27,353a.35.35,0,0,0,.43.15v-.07a.24.24,0,0,0-.28-.15Zm.24,3.07h-.15v.21l.07.15.15-.06ZM370.39,333c.1,0,.15,0,.15-.14h-.29c0,.1,0,.15.14.15m-.28-.16c0-.15-.07-.25-.28-.3h-.08q.11.31.36.3m-1.17,0a.61.61,0,0,0,.57.23V333a3.71,3.71,0,0,1-.51-.16Zm-10.41-19.53c0-.13.18-.27.52-.42a.28.28,0,0,0-.36-.16c-.64.4-1,.68-1,.84h.08l.37-.28Zm-2.22,2.53c0,.1,0,.15.14.15v-.22h-.14Z" transform="translate(-235.2 -270.48)"/></g></g></svg>